<?xml version="1.0" encoding="UTF-8" standalone="no"?>
<svg
   xmlns:dc="http://purl.org/dc/elements/1.1/"
   xmlns:cc="http://creativecommons.org/ns#"
   xmlns:rdf="http://www.w3.org/1999/02/22-rdf-syntax-ns#"
   xmlns:svg="http://www.w3.org/2000/svg"
   xmlns="http://www.w3.org/2000/svg"
   version="1.1"
   id="svg2"
   viewBox="0 0 553.09388 561.15716"
   height="6.2350793in"
   width="6.1454873in">
  <defs
     id="defs4">
    <clipPath
       clipPathUnits="userSpaceOnUse"
       id="clipPath4150">
      <path
         d="m 0,751.181 751.181,0 L 751.181,0 0,0 0,751.181 Z"
         id="path4152" />
    </clipPath>
  </defs>
  <metadata
     id="metadata7">
    <rdf:RDF>
      <cc:Work
         rdf:about="">
        <dc:format>image/svg+xml</dc:format>
        <dc:type
           rdf:resource="http://purl.org/dc/dcmitype/StillImage" />
        <dc:title></dc:title>
      </cc:Work>
    </rdf:RDF>
  </metadata>
  <g
     transform="translate(2.043061,2.7758625)"
     id="layer1">
    <g
       id="g4144"
       transform="matrix(1.25,0,0,-1.25,-86.701246,1078.8598)">
      <g
         id="g4146">
        <path
           d="m 292.17955,858.10853 -217.253002,-217.253 75.790002,-0.01 c 0,-64.196 52.043,-116.21 116.215,-116.21 64.191,0 116.234,52.014 116.234,116.22 l -181.903,-0.01 c 0,64.187 52.023,116.196 116.21,116.196 64.191,0 116.234,-52.014 116.234,-116.186 l 75.775,0 -217.302,217.253 z"
           style="fill:#004990;fill-opacity:1;fill-rule:nonzero;stroke:none"
           id="path4164" />
        <path
           d="m 433.70665,640.85083 c 0,64.171 -52.043,116.205 -116.234,116.205 -64.187,0 -116.21,-52.029 -116.21,-116.205 l 181.903,-0.01 c 0,-64.176 -52.044,-116.205 -116.234,-116.21 -64.172,0.005 -116.215,52.043 -116.215,116.22 l -75.789998,0 217.296998,-217.268 217.258,217.258 -75.775,0.01 z"
           style="fill:#00aeef;fill-opacity:1;fill-rule:nonzero;stroke:none"
           id="path4168" />
      </g>
    </g>
  </g>
</svg>
