<?xml version="1.0" encoding="UTF-8" ?>
<!DOCTYPE svg PUBLIC "-//W3C//DTD SVG 1.1//EN" "http://www.w3.org/Graphics/SVG/1.1/DTD/svg11.dtd">
<svg width="600pt" height="533pt" viewBox="0 0 600 533" version="1.1" xmlns="http://www.w3.org/2000/svg">
<g id="#ffffffff">
<path fill="#ffffff" opacity="1.00" d=" M 202.54 226.32 C 221.00 165.54 239.76 104.86 258.20 44.07 C 269.75 83.37 281.44 122.62 293.03 161.90 C 295.80 170.30 297.57 179.05 300.97 187.23 C 312.33 149.69 323.30 112.03 334.49 74.44 C 337.57 64.59 339.99 54.53 343.56 44.84 C 362.14 105.31 380.66 165.80 399.00 226.35 C 395.65 226.43 392.29 226.42 388.94 226.37 C 385.33 211.44 380.93 196.60 374.33 182.68 C 370.38 174.52 365.22 166.51 357.45 161.51 C 349.99 156.70 339.84 155.51 331.89 159.83 C 327.37 162.08 323.88 165.85 320.51 169.52 C 311.62 179.65 306.63 192.35 300.85 204.34 C 295.14 193.19 290.70 181.16 282.61 171.41 C 277.99 165.67 272.45 160.01 265.14 157.98 C 256.94 155.76 247.99 158.21 241.45 163.45 C 234.38 169.01 229.76 176.98 226.08 185.04 C 220.05 198.33 216.14 212.42 212.35 226.47 C 209.08 226.41 205.81 226.40 202.54 226.32 Z" />
</g>
<g id="#01bbd2ff">
<path fill="#01bbd2" opacity="1.00" d=" M 288.47 7.67 C 317.84 5.29 347.96 11.63 373.46 26.51 C 401.93 42.72 424.63 68.83 436.69 99.29 C 451.55 136.50 450.33 179.92 432.99 216.09 C 422.58 238.12 406.55 257.48 386.81 271.78 C 361.88 290.08 330.93 300.07 300.00 299.67 C 268.50 299.75 237.13 288.99 212.16 269.82 C 186.17 250.13 167.09 221.49 159.11 189.86 C 151.25 159.01 153.56 125.53 166.17 96.24 C 177.70 68.75 198.04 45.16 223.28 29.36 C 242.88 17.08 265.42 9.60 288.47 7.67 M 202.54 226.32 C 205.81 226.40 209.08 226.41 212.35 226.47 C 216.14 212.42 220.05 198.33 226.08 185.04 C 229.76 176.98 234.38 169.01 241.45 163.45 C 247.99 158.21 256.94 155.76 265.14 157.98 C 272.45 160.01 277.99 165.67 282.61 171.41 C 290.70 181.16 295.14 193.19 300.85 204.34 C 306.63 192.35 311.62 179.65 320.51 169.52 C 323.88 165.85 327.37 162.08 331.89 159.83 C 339.84 155.51 349.99 156.70 357.45 161.51 C 365.22 166.51 370.38 174.52 374.33 182.68 C 380.93 196.60 385.33 211.44 388.94 226.37 C 392.29 226.42 395.65 226.43 399.00 226.35 C 380.66 165.80 362.14 105.31 343.56 44.84 C 339.99 54.53 337.57 64.59 334.49 74.44 C 323.30 112.03 312.33 149.69 300.97 187.23 C 297.57 179.05 295.80 170.30 293.03 161.90 C 281.44 122.62 269.75 83.37 258.20 44.07 C 239.76 104.86 221.00 165.54 202.54 226.32 Z" />
</g>
<g id="#56565aff">
<path fill="#56565a" opacity="1.00" d=" M 225.15 345.28 C 228.86 345.29 232.56 345.28 236.26 345.25 C 236.41 354.39 236.30 363.52 236.33 372.66 C 241.58 372.63 246.84 372.58 252.09 372.72 C 251.26 375.96 250.26 379.16 249.19 382.33 C 244.89 382.29 240.60 382.29 236.31 382.30 C 236.37 398.54 236.30 414.78 236.33 431.02 C 236.23 433.46 236.85 436.47 239.45 437.38 C 242.89 438.47 246.56 438.04 250.10 438.12 C 250.12 441.20 250.12 444.28 250.12 447.36 C 243.72 447.50 236.74 448.49 230.96 445.08 C 226.78 442.68 225.09 437.65 225.16 433.06 C 225.07 416.14 225.26 399.22 225.08 382.30 C 219.84 382.28 214.60 382.33 209.37 382.25 C 210.23 379.04 211.19 375.87 212.07 372.67 C 216.40 372.62 220.72 372.63 225.05 372.64 C 225.27 363.52 225.08 354.40 225.15 345.28 Z" />
<path fill="#56565a" opacity="1.00" d=" M 503.29 345.28 C 507.06 345.28 510.84 345.28 514.62 345.28 C 514.56 378.83 514.55 412.39 514.63 445.94 C 510.84 446.01 507.06 446.01 503.28 445.95 C 503.30 412.39 503.29 378.83 503.29 345.28 Z" />
<path fill="#56565a" opacity="1.00" d=" M 33.58 371.73 C 40.48 370.70 48.01 371.07 54.04 374.94 C 57.10 376.68 59.17 379.60 61.19 382.39 C 66.40 377.17 72.71 372.51 80.22 371.53 C 87.99 370.61 96.79 371.65 102.62 377.38 C 107.91 382.41 109.82 389.96 109.82 397.06 C 109.92 413.35 109.79 429.65 109.89 445.95 C 106.15 445.99 102.42 445.99 98.68 445.97 C 98.68 429.62 98.72 413.28 98.68 396.93 C 98.86 390.90 95.31 384.59 89.35 382.73 C 80.24 379.61 70.58 384.82 64.66 391.63 C 64.07 394.03 64.54 396.55 64.45 399.00 C 64.46 414.67 64.53 430.34 64.41 446.02 C 60.74 446.01 57.06 445.99 53.39 445.92 C 53.52 430.62 53.40 415.32 53.47 400.02 C 53.46 395.29 52.96 390.05 49.57 386.44 C 46.75 383.12 42.26 381.68 38.01 381.78 C 30.97 382.03 24.35 385.83 19.88 391.15 C 19.39 409.39 19.79 427.68 19.69 445.94 C 15.93 446.00 12.17 446.00 8.41 445.90 C 8.51 421.52 8.48 397.14 8.42 372.76 C 12.16 372.59 15.92 372.60 19.66 372.71 C 19.69 374.59 19.72 376.46 19.77 378.34 C 24.01 375.48 28.45 372.60 33.58 371.73 Z" />
<path fill="#56565a" opacity="1.00" d=" M 160.33 371.24 C 170.86 369.85 182.08 372.77 190.11 379.86 C 203.65 391.27 206.79 412.27 198.74 427.73 C 194.16 436.95 185.37 443.84 175.41 446.35 C 161.61 450.02 145.65 445.76 136.51 434.52 C 124.67 420.38 124.79 397.79 136.76 383.77 C 142.65 376.80 151.26 372.21 160.33 371.24 M 160.38 381.53 C 156.40 382.22 152.59 383.93 149.47 386.50 C 136.21 397.04 135.80 419.50 148.01 430.99 C 157.22 439.66 172.95 439.76 182.37 431.37 C 194.56 420.53 194.79 399.19 183.06 387.94 C 177.13 382.22 168.39 380.14 160.38 381.53 Z" />
<path fill="#56565a" opacity="1.00" d=" M 292.45 371.76 C 303.40 369.49 315.41 371.77 324.26 378.76 C 338.08 389.33 342.07 409.64 335.34 425.31 C 331.56 434.23 324.11 441.55 315.03 444.98 C 300.70 450.65 282.90 447.09 272.64 435.35 C 260.06 421.15 260.01 397.76 272.45 383.47 C 277.59 377.49 284.75 373.36 292.45 371.76 M 295.39 381.62 C 291.49 382.45 287.72 384.10 284.63 386.63 C 271.22 397.71 271.26 421.25 284.85 432.17 C 294.26 439.79 309.18 439.33 318.08 431.09 C 330.31 419.96 330.15 398.18 317.70 387.27 C 311.74 381.88 303.16 380.15 295.39 381.62 Z" />
<path fill="#56565a" opacity="1.00" d=" M 443.31 371.23 C 454.54 369.78 466.57 373.23 474.64 381.36 C 485.05 391.17 488.06 406.93 484.53 420.46 C 481.95 429.87 475.59 438.29 466.94 442.93 C 452.58 450.91 432.83 448.68 421.40 436.60 C 408.03 423.36 407.15 400.23 418.38 385.39 C 424.19 377.44 433.58 372.35 443.31 371.23 M 443.38 381.52 C 439.40 382.20 435.59 383.88 432.44 386.40 C 418.79 397.25 418.64 420.84 432.02 431.95 C 441.37 439.68 456.28 439.45 465.32 431.34 C 477.64 420.35 477.68 398.61 465.49 387.52 C 459.58 382.15 451.15 380.15 443.38 381.52 Z" />
<path fill="#56565a" opacity="1.00" d=" M 368.09 382.12 C 376.05 371.47 391.49 368.58 403.28 374.14 C 402.49 377.73 401.46 381.25 400.28 384.73 C 394.50 382.67 387.88 381.33 382.07 384.04 C 374.57 387.17 367.65 394.32 368.10 402.94 C 368.11 417.27 368.19 431.61 368.07 445.94 C 364.32 446.00 360.57 446.00 356.83 445.92 C 356.81 421.51 356.78 397.09 356.84 372.67 C 360.60 372.61 364.35 372.62 368.11 372.67 C 368.13 375.82 368.11 378.97 368.09 382.12 Z" />
<path fill="#56565a" opacity="1.00" d=" M 541.48 372.69 C 549.98 372.58 558.49 372.66 566.99 372.61 C 574.18 372.57 581.84 374.75 586.72 380.31 C 591.44 385.27 593.09 392.31 593.14 398.99 C 593.15 414.65 593.12 430.31 593.14 445.97 C 589.37 445.99 585.60 446.00 581.84 445.91 C 581.82 442.92 581.83 439.94 581.86 436.97 C 571.64 448.86 551.76 451.44 539.27 441.74 C 527.91 433.02 527.02 413.46 538.45 404.43 C 543.88 400.04 551.06 398.29 557.95 398.29 C 565.93 398.26 573.92 398.39 581.91 398.22 C 581.66 394.59 581.49 390.73 579.37 387.61 C 577.18 384.08 572.83 382.77 568.91 382.56 C 560.67 382.19 552.43 382.61 544.19 382.31 C 543.34 379.08 542.37 375.90 541.48 372.69 M 543.54 414.54 C 539.37 421.10 541.23 430.93 547.92 435.11 C 556.10 440.38 567.75 438.32 574.22 431.23 C 580.28 425.41 582.41 416.78 581.91 408.61 C 573.94 408.58 565.97 408.50 558.00 408.62 C 552.76 408.78 546.76 409.98 543.54 414.54 Z" />
<path fill="#56565a" opacity="1.00" d=" M 122.51 488.30 C 127.25 488.26 132.00 488.29 136.74 488.24 C 133.85 497.53 131.01 506.85 128.21 516.17 C 127.75 517.20 127.58 519.19 125.96 518.89 C 121.69 519.03 117.41 518.92 113.14 518.83 C 116.29 508.66 119.41 498.49 122.51 488.30 Z" />
<path fill="#56565a" opacity="1.00" d=" M 81.84 513.95 C 80.00 506.20 85.90 497.31 94.04 496.79 C 96.95 496.52 99.21 498.68 101.34 500.33 C 101.74 499.36 102.13 498.39 102.53 497.43 C 103.73 497.40 104.92 497.38 106.12 497.37 C 104.31 504.64 101.84 511.72 99.69 518.90 C 97.09 518.58 94.44 518.28 91.91 519.18 C 87.80 520.67 82.97 518.16 81.84 513.95 M 92.47 500.58 C 86.77 501.97 82.82 510.27 87.10 514.89 C 92.48 518.77 99.35 512.73 99.42 506.98 C 100.37 503.02 96.34 499.23 92.47 500.58 Z" />
<path fill="#56565a" opacity="1.00" d=" M 340.46 516.50 C 334.89 508.24 343.18 495.59 352.94 496.90 C 355.78 497.10 357.88 499.12 359.78 501.04 C 358.80 501.94 357.84 502.84 356.87 503.75 C 355.11 502.36 353.46 500.22 350.99 500.34 C 344.67 500.82 339.81 509.68 344.24 514.75 C 347.56 517.72 351.87 514.93 354.76 512.76 C 355.39 513.19 356.65 514.06 357.28 514.50 C 353.62 519.71 344.89 521.88 340.46 516.50 Z" />
<path fill="#56565a" opacity="1.00" d=" M 370.32 497.29 C 374.39 495.84 379.48 497.61 381.32 501.63 C 384.11 508.31 379.68 516.66 373.01 518.97 C 368.75 520.66 363.08 519.14 361.22 514.68 C 358.47 507.72 363.27 499.25 370.32 497.29 M 371.47 500.54 C 365.53 501.85 361.23 511.17 366.67 515.34 C 372.56 518.20 378.57 511.76 378.40 506.03 C 378.77 502.40 374.86 499.45 371.47 500.54 Z" />
<path fill="#56565a" opacity="1.00" d=" M 389.75 497.08 C 391.17 497.50 392.58 498.00 393.96 498.56 C 395.90 497.79 397.86 496.90 399.99 496.79 C 402.43 496.72 404.16 498.66 405.92 500.07 C 408.85 498.26 412.18 495.96 415.80 497.03 C 418.85 497.63 420.09 501.20 419.37 503.96 C 418.25 509.03 416.33 513.88 414.90 518.87 C 413.62 518.89 412.35 518.91 411.08 518.93 C 412.55 512.86 415.69 507.08 415.54 500.72 C 411.80 499.72 407.64 501.34 405.45 504.47 C 403.59 509.18 402.46 514.14 400.84 518.94 C 399.58 518.90 398.32 518.85 397.06 518.81 C 398.44 513.78 400.35 508.90 401.52 503.82 C 402.14 502.11 400.72 500.11 398.88 500.31 C 395.97 500.51 393.15 502.14 391.39 504.43 C 389.46 509.09 388.42 514.06 386.80 518.82 C 385.53 518.87 384.27 518.92 383.01 518.97 C 385.09 511.62 387.43 504.35 389.75 497.08 Z" />
<path fill="#56565a" opacity="1.00" d=" M 427.05 497.39 C 429.47 497.82 431.94 498.56 434.29 497.42 C 438.04 495.85 442.96 497.66 444.44 501.55 C 447.21 509.29 441.33 518.99 433.00 519.61 C 429.83 520.03 427.39 517.76 425.09 515.99 C 424.12 519.38 423.24 522.80 421.99 526.10 C 421.55 527.91 419.18 527.20 417.86 527.58 C 420.63 517.43 423.96 507.44 427.05 497.39 M 433.57 500.70 C 428.26 502.55 424.71 510.58 429.03 514.95 C 436.00 519.40 444.30 509.07 440.39 502.63 C 439.06 500.27 435.92 499.89 433.57 500.70 Z" />
<path fill="#56565a" opacity="1.00" d=" M 448.04 513.86 C 446.11 506.20 452.06 497.44 460.04 496.79 C 462.90 496.50 465.23 498.42 467.28 500.15 C 468.17 497.89 470.14 496.94 472.50 497.42 C 470.28 504.59 468.14 511.78 465.81 518.92 C 463.16 518.56 460.49 518.34 457.92 519.22 C 453.88 520.55 448.97 518.09 448.04 513.86 M 458.47 500.59 C 453.62 502.13 450.27 507.91 451.90 512.84 C 452.85 515.58 456.16 516.75 458.81 515.91 C 463.74 514.44 466.72 508.57 465.32 503.68 C 464.29 501.01 461.13 499.70 458.47 500.59 Z" />
<path fill="#56565a" opacity="1.00" d=" M 478.49 497.14 C 479.94 497.52 481.36 498.09 482.86 498.35 C 485.71 497.78 488.67 495.96 491.57 497.32 C 494.21 498.28 495.06 501.47 494.45 503.99 C 493.36 509.03 491.41 513.84 490.10 518.83 C 489.14 518.88 487.22 518.99 486.25 519.04 C 487.58 513.04 490.54 507.40 490.80 501.20 C 487.09 499.35 482.65 501.30 480.18 504.24 C 478.20 508.92 477.11 513.94 475.56 518.78 C 474.29 518.84 473.03 518.91 471.77 518.97 C 473.79 511.63 476.08 504.36 478.49 497.14 Z" />
<path fill="#56565a" opacity="1.00" d=" M 516.33 497.41 C 517.55 497.39 518.79 497.38 520.03 497.38 C 518.03 504.77 515.64 512.05 513.45 519.39 C 512.49 522.11 511.61 525.51 508.67 526.73 C 505.54 527.90 502.12 527.33 498.86 527.45 C 499.00 526.67 499.26 525.11 499.40 524.33 C 502.08 524.15 504.88 524.40 507.46 523.46 C 509.14 521.80 509.52 519.31 510.38 517.20 C 507.41 518.37 504.35 520.22 501.04 519.45 C 498.27 518.90 496.59 515.91 497.15 513.24 C 498.17 507.81 500.34 502.68 501.81 497.37 C 502.74 497.41 504.62 497.50 505.55 497.54 C 504.28 503.29 501.20 508.71 501.11 514.67 C 503.89 518.04 509.07 514.92 511.47 512.44 C 513.59 507.61 514.59 502.38 516.33 497.41 Z" />
<path fill="#56565a" opacity="1.00" d=" M 138.65 501.67 C 145.28 497.59 153.42 497.20 160.99 497.75 C 164.10 498.16 167.64 498.73 169.74 501.31 C 171.19 502.97 170.70 505.32 170.80 507.35 C 164.00 508.78 157.22 510.29 150.41 511.68 C 148.36 512.07 146.40 512.80 144.56 513.78 C 151.28 517.58 158.83 514.14 165.47 512.01 C 164.18 514.29 163.76 518.05 160.57 518.35 C 154.57 519.67 148.34 519.91 142.22 519.48 C 138.64 519.04 134.34 518.04 132.62 514.48 C 131.28 509.44 134.41 504.27 138.65 501.67 M 148.95 503.02 C 147.24 505.28 146.78 508.19 145.93 510.84 C 150.49 508.92 155.01 506.91 159.48 504.79 C 158.34 500.05 151.91 500.11 148.95 503.02 Z" />
<path fill="#56565a" opacity="1.00" d=" M 175.43 499.15 C 185.29 497.58 195.47 496.63 205.36 498.47 C 207.56 499.06 211.36 499.94 210.84 502.95 C 209.75 508.16 207.99 513.23 206.36 518.30 C 201.92 519.75 196.71 518.57 191.98 518.82 C 193.54 513.43 195.33 508.11 196.72 502.67 C 194.27 501.69 191.66 501.41 189.05 501.50 C 187.32 507.29 185.53 513.06 183.83 518.86 C 179.06 518.96 174.29 518.94 169.52 518.90 C 171.41 512.29 173.51 505.74 175.43 499.15 Z" />
<path fill="#56565a" opacity="1.00" d=" M 224.42 498.68 C 230.93 497.26 237.80 497.05 244.33 498.50 C 247.36 499.28 251.04 500.82 251.68 504.27 C 252.42 509.40 248.77 514.14 244.34 516.31 C 236.82 520.04 228.03 520.25 219.87 519.07 C 216.12 518.37 211.09 516.48 211.08 511.93 C 210.78 504.62 218.05 500.01 224.42 498.68 M 230.37 502.22 C 227.99 503.34 227.05 506.04 226.22 508.34 C 225.64 510.32 225.02 512.81 226.41 514.61 C 229.25 516.78 233.79 515.42 235.17 512.17 C 236.50 509.25 238.07 505.65 236.43 502.55 C 234.65 501.36 232.26 501.21 230.37 502.22 Z" />
<path fill="#56565a" opacity="1.00" d=" M 252.66 498.19 C 257.00 498.18 261.33 498.17 265.67 498.21 C 266.37 502.88 267.05 507.55 267.74 512.23 C 271.43 507.69 274.95 503.01 278.38 498.27 C 283.01 498.14 287.64 498.14 292.27 498.24 C 287.31 505.26 281.96 512.00 276.80 518.88 C 269.73 518.93 262.66 518.98 255.60 518.87 C 254.68 511.96 253.67 505.07 252.66 498.19 Z" />
<path fill="#56565a" opacity="1.00" d=" M 303.33 498.14 C 309.25 497.33 315.44 497.11 321.25 498.71 C 324.00 499.53 327.31 501.03 327.79 504.22 C 328.64 509.18 325.24 513.82 321.03 516.06 C 314.10 519.80 305.91 520.05 298.24 519.41 C 294.59 518.88 290.41 518.09 288.09 514.93 C 286.27 511.91 287.43 508.05 289.35 505.37 C 292.56 500.90 298.12 499.03 303.33 498.14 M 306.41 502.25 C 303.23 504.30 302.21 508.45 301.72 511.98 C 301.46 516.03 307.03 516.57 309.47 514.49 C 312.01 512.10 313.18 508.45 313.37 505.05 C 313.75 501.52 308.77 500.73 306.41 502.25 Z" />
</g>
</svg>
