<?xml version="1.0" encoding="UTF-8" standalone="no"?>
<svg
   xmlns:dc="http://purl.org/dc/elements/1.1/"
   xmlns:cc="http://creativecommons.org/ns#"
   xmlns:rdf="http://www.w3.org/1999/02/22-rdf-syntax-ns#"
   xmlns:svg="http://www.w3.org/2000/svg"
   xmlns="http://www.w3.org/2000/svg"
   viewBox="0 0 319.41336 96.543116"
   height="1.0727013in"
   width="3.5490375in"
   xml:space="preserve"
   version="1.1"
   id="svg2"><metadata
     id="metadata8"><rdf:RDF><cc:Work
         rdf:about=""><dc:format>image/svg+xml</dc:format><dc:type
           rdf:resource="http://purl.org/dc/dcmitype/StillImage" /><dc:title></dc:title></cc:Work></rdf:RDF></metadata><defs
     id="defs6"><clipPath
       id="clipPath24"
       clipPathUnits="userSpaceOnUse"><path
         id="path26"
         d="m 0,841.89 595.28,0 L 595.28,0 0,0 0,841.89 Z" /></clipPath></defs><g
     transform="matrix(1.25,0,0,-1.25,-165.92087,707.6045)"
     id="g10"><g
       transform="translate(200.4775,497.6431)"
       id="g12"><path
         id="path14"
         style="fill:#0099a9;fill-opacity:1;fill-rule:nonzero;stroke:none"
         d="m 0,0 35.104,0 0,10.103 -22.862,0 0,15.421 22.862,0 0,9.988 -22.862,0 -0.012,13.411 22.874,0 0,10.627 L 0,59.55 0,0 Z" /></g><g
       transform="translate(286.0186,557.1929)"
       id="g16"><path
         id="path18"
         style="fill:#0099a9;fill-opacity:1;fill-rule:nonzero;stroke:none"
         d="m 0,0 -43.592,0 0,-10.627 16.465,0 0,-48.923 12.241,0 0,48.923 14.886,0 L 0,0 Z" /></g><g
       id="g20"><g
         clip-path="url(#clipPath24)"
         id="g22"><g
           transform="translate(381.0674,515.7261)"
           id="g28"><path
             id="path30"
             style="fill:#0099a9;fill-opacity:1;fill-rule:nonzero;stroke:none"
             d="m 0,0 c 0,20.726 -28.705,14.342 -28.184,26.581 0,4.77 4.26,6.387 8.522,6.387 4.781,0 8.498,-1.067 12.219,-4.261 l 5.317,8.499 c -5.317,3.731 -10.629,5.831 -18.08,5.831 -10.111,0 -20.733,-5.831 -21.258,-17.525 0,-21.251 28.709,-14.37 28.165,-26.574 0,-5.328 -4.254,-7.459 -9.56,-7.459 -4.782,0 -10.102,1.614 -13.306,4.785 l -5.848,-9.017 c 4.287,-3.299 7.743,-5.158 11.648,-6.108 l 0,6.426 8.423,-7.242 C -9.891,-19.538 0,-13.156 0,0" /></g><g
           transform="translate(181.4307,521.5737)"
           id="g32"><path
             id="path34"
             style="fill:#0099a9;fill-opacity:1;fill-rule:nonzero;stroke:none"
             d="m 0,0 -41.494,35.705 0,-59.636 12.231,0 0,35.508 41.474,-35.659 0,59.701 L 0,35.619 0,0 Z" /></g><g
           transform="translate(298.8613,516.2446)"
           id="g36"><path
             id="path38"
             style="fill:#0099a9;fill-opacity:1;fill-rule:nonzero;stroke:none"
             d="M 0,0 9.511,19.668 18.974,0 0,0 Z m -19.738,-18.602 12.755,0 4.265,8.495 23.382,0 4.257,-8.495 13.818,0 -29.228,61.241 -29.249,-61.241 z" /></g></g></g></g></svg>