<?xml version="1.0" encoding="UTF-8" standalone="no"?>
<svg
   xmlns:dc="http://purl.org/dc/elements/1.1/"
   xmlns:cc="http://creativecommons.org/ns#"
   xmlns:rdf="http://www.w3.org/1999/02/22-rdf-syntax-ns#"
   xmlns:svg="http://www.w3.org/2000/svg"
   xmlns="http://www.w3.org/2000/svg"
   version="1.1"
   id="svg2"
   viewBox="0 0 536.8613 215.28502"
   height="60.758217mm"
   width="151.51419mm">
  <defs
     id="defs4" />
  <metadata
     id="metadata7">
    <rdf:RDF>
      <cc:Work
         rdf:about="">
        <dc:format>image/svg+xml</dc:format>
        <dc:type
           rdf:resource="http://purl.org/dc/dcmitype/StillImage" />
        <dc:title></dc:title>
      </cc:Work>
    </rdf:RDF>
  </metadata>
  <g
     transform="translate(-2.4876864,-1.6514475)"
     id="layer1">
    <path
       id="path4147"
       d="m 229.65904,202.67361 c -25.48276,-1.57503 -60.52779,-5.52242 -75.3239,-8.48429 -4.4103,-0.88285 -5.19622,-1.35124 -4.5799,-2.7295 0.4092,-0.91507 0.93978,-3.60162 1.17907,-5.97011 0.40808,-4.03906 0.59925,-4.27522 3.07991,-3.80474 4.76543,0.90382 16.47375,2.52191 25.64482,3.54413 73.17374,8.156 159.04657,4.85621 221.34148,-8.50538 6.23781,-1.33794 11.75031,-2.17995 12.25,-1.87112 0.49968,0.30882 0.90852,1.44939 0.90852,2.5346 0,1.0852 0.68529,3.61323 1.52287,5.61783 1.08022,2.58534 1.20153,3.84333 0.41734,4.32798 -2.56489,1.58519 -41.43059,8.89093 -58.31683,10.96204 -28.95225,3.55102 -39.73612,4.14906 -80.12338,4.44336 -23.1,0.16833 -44.7,0.13917 -48,-0.0648 z m -95.5,-9.08378 c -6.19144,-2.26332 -8.10641,-10.27827 -3.54545,-14.83922 3.70692,-3.70693 9.54995,-3.42635 12.95656,0.62218 2.9365,3.48983 3.21328,5.81516 1.16389,9.77824 -2.03664,3.93843 -6.64841,5.87419 -10.575,4.4388 z m 295.0711,-4.04532 c -1.88589,-0.96165 -4.76268,-3.41815 -6.39285,-5.45889 -5.9793,-7.4852 -2.9514,-20.0594 5.83426,-24.22847 4.50425,-2.13741 12.32875,-2.21166 16.30638,-0.15475 3.63787,1.88122 7.97368,6.91899 8.80475,10.23024 1.02724,4.09285 -0.21285,10.97778 -2.57472,14.29472 -4.61228,6.47735 -14.84673,8.95339 -21.97782,5.31715 z M 103.61465,182.84555 C 54.051132,168.47251 22.255766,149.43424 11.512762,127.69725 8.0784696,120.74844 7.7633736,119.40833 7.8099136,111.94909 7.8847536,99.953912 12.271697,90.242522 21.793136,80.994372 l 3.817524,-3.70796 1.771944,3.45388 c 0.974569,1.89963 2.551916,3.89037 3.505214,4.42386 1.525396,0.85365 1.160807,1.54937 -3.039989,5.80095 -10.122965,10.245338 -13.058138,23.143248 -7.688784,33.786518 3.122794,6.19009 11.525577,14.84527 19.908301,20.5063 14.620003,9.8732 46.673928,22.3675 73.299774,28.57153 l 11.70807,2.72807 -1.45807,2.81961 c -0.80195,1.55079 -1.45808,3.96696 -1.45808,5.36927 0,3.37234 -0.55755,3.31519 -18.54439,-1.90085 z m 356.05396,-12.35018 c -0.37457,-1.99661 -1.33368,-4.89229 -2.13136,-6.43483 l -1.45034,-2.80464 4.78607,-2.03771 c 46.59674,-19.83906 61.01609,-44.86306 39.22878,-68.079398 l -4.55729,-4.8562 2.2568,-2.12015 c 1.24125,-1.16609 3.18183,-4.08806 4.31241,-6.49327 1.13058,-2.40521 2.4656,-4.37311 2.96671,-4.37311 0.5011,0 4.30695,2.27129 8.45744,5.0473 16.25602,10.87269 22.0375,22.940878 18.19748,37.985228 -4.65642,18.24282 -22.03144,34.52581 -52.84556,49.52421 -7.20533,3.5071 -14.3245,6.80321 -15.82036,7.32467 -2.57782,0.89863 -2.75529,0.75866 -3.40078,-2.6821 z m -264.51167,-23.44931 -0.002,-12.25 6.2521,0.27644 c 8.21132,0.36307 11.15311,-1.1453 11.55503,-5.92472 0.27572,-3.27871 -0.41177,-4.37374 -7.65319,-12.1901 -9.76956,-10.54519 -11.60362,-14.71875 -10.94312,-24.901868 0.52411,-8.08033 2.22045,-12.12015 7.16596,-17.06566 5.86407,-5.86408 11.72977,-7.94719 23.87742,-8.47973 l 10.75,-0.47126 0,12.62845 0,12.62845 -6.87756,0 c -11.8944,0 -12.14998,4.15024 -0.87688,14.239598 9.53482,8.53363 12.09859,13.52992 12.59139,24.53818 0.33035,7.37941 0.0791,8.87347 -2.31483,13.76653 -3.19601,6.53241 -9.54431,11.79086 -16.85592,13.96218 -3.10729,0.92273 -9.16382,1.49351 -15.8478,1.49351 l -10.8185,0 -0.002,-12.25 z m 165.7998,10.3192 c -14.34406,-4.58636 -24.073,-14.04413 -28.76056,-27.95895 -2.77126,-8.22635 -2.79898,-22.43303 -0.0611,-31.297338 6.05178,-19.59328 23.97447,-31.81291 46.66045,-31.81291 l 6.36351,0 0,12.5 0,12.5 -6.13398,0 c -8.14623,0 -13.0193,1.58338 -18.00372,5.84986 -5.0743,4.343418 -6.8623,8.421118 -6.8623,15.650138 0,6.78442 1.69541,10.98766 6.13076,15.19932 4.55396,4.32428 9.51113,6.22343 17.59499,6.74084 l 6.77425,0.43358 0.28078,12.06313 0.28078,12.06313 -9.28078,-0.0538 c -6.09573,-0.0353 -11.23774,-0.67949 -14.98308,-1.87702 z m -235.7977,-44.5692 0,-45.499998 13.75,0.0349 c 35.72951,0.0907 47.43403,8.19433 47.61309,32.965108 0.0591,8.17547 -0.2877,10.26683 -2.48737,15 -5.35777,11.52864 -12.35802,16.21741 -27.17143,18.19943 l -8.70429,1.16461 0,11.81797 0,11.81798 -11.5,0 -11.5,0 0,-45.5 z m 32.43444,-2.47507 c 1.41055,-0.5363 3.48848,-2.4488 4.61762,-4.25 4.71654,-7.523838 -0.55996,-16.774928 -9.56784,-16.774928 l -4.48422,0 0,10.999998 0,11 3.4349,0 c 1.8892,0 4.58899,-0.43878 5.99954,-0.97507 z m 94.56556,2.47507 0,-45.499998 5.25,0.0768 5.25,0.0768 17,20.07646 17,20.076458 0.27071,-20.153278 0.2707,-20.15329 11.4793,0 11.47929,0 0,45.499998 0,45.5 -5.37406,0 -5.37407,0 -16.37593,-19.40584 -16.37594,-19.4059 -0.27114,19.4059 -0.27114,19.40589 -11.97886,0 -11.97886,0 0,-45.5 z M 458.26263,86.761262 c -1.70697,-1.94413 -3.10359,-3.96913 -3.10359,-4.5 0,-0.53086 1.8,-0.9652 4,-0.9652 l 4,0 0,4.5 c 0,2.475 -0.40338,4.5 -0.89641,4.5 -0.49302,0 -2.29302,-1.59066 -4,-3.5348 z m 10.89641,-0.9652 c 0,-4.24614 0.15514,-4.49914 2.75,-4.48469 5.17972,0.0288 5.73647,1.36104 2.2353,5.34865 -1.75586,1.99982 -3.59587,3.63604 -4.08889,3.63604 -0.49303,0 -0.89641,-2.025 -0.89641,-4.5 z m -20.81559,1.5999 -3.31559,-1.7191 2.44076,-1.11208 c 2.1632,-0.98563 2.57293,-0.82201 3.60303,1.43882 0.63925,1.403 1.03292,2.67704 0.87483,2.83119 -0.15809,0.15415 -1.77946,-0.49332 -3.60303,-1.43883 z m 31.84739,1.17578 c 0.0175,-0.42662 0.65947,-1.60402 1.42661,-2.61644 1.04571,-1.38005 1.8315,-1.59638 3.13961,-0.86432 1.53709,0.86019 1.36725,1.17168 -1.42661,2.61644 -1.74427,0.902 -3.1571,1.29094 -3.13961,0.86432 z m -445.954872,-8.3526 c -5.334146,-5.33415 -3.892311,-13.89871 2.934121,-17.42879 7.989903,-4.13174 16.988956,1.4598 16.988956,10.55605 0,2.24863 -0.972642,4.1223 -3.4,6.54966 -2.964165,2.96417 -4.043891,3.4 -8.423077,3.4 -4.275769,0 -5.480846,-0.45777 -8.1,-3.07692 z m 404.077692,-0.25849 c -1.13254,-1.20554 -2.76168,-3.87324 -3.62031,-5.92824 l -1.56115,-3.73635 6.49437,0 c 6.27202,0 6.515,0.0942 7.09694,2.75 0.33142,1.5125 0.76369,3.28077 0.96061,3.92949 0.19692,0.64873 -1.36756,2.07893 -3.47663,3.17824 l -3.83466,1.99874 -2.05917,-2.19188 z m 49.48802,0.70718 c -2.45605,-1.33071 -2.77206,-1.97467 -2.25,-4.58496 0.33405,-1.67025 0.60736,-3.58008 0.60736,-4.24408 0,-0.85597 1.67321,-1.07449 5.75,-0.75094 3.1625,0.25098 5.87509,0.56309 6.02798,0.69358 0.65654,0.56035 -2.08703,6.20232 -4.01891,8.26463 -2.46639,2.63291 -2.41432,2.62762 -6.11643,0.62177 z m -14.39264,-4.54346 c -3.581,-0.79709 -4.25,-1.33028 -4.25,-3.38716 0,-2.29567 0.33154,-2.44115 5.56336,-2.44115 l 5.56336,0 -0.31336,3.17299 c -0.36581,3.70406 -0.89322,3.91743 -6.56336,2.65532 z m -20.60202,-1.30327 c -1.51995,-3.96093 -0.85274,-4.52504 5.35202,-4.52504 5.73333,0 6,0.11111 6,2.5 0,1.71009 -0.55293,2.50348 -1.75,2.51101 -0.9625,0.006 -3.37091,0.27912 -5.35202,0.60682 -2.81925,0.46635 -3.74283,0.22887 -4.25,-1.09279 z M 58.726786,66.709942 c -0.356992,-1.42237 -1.711726,-3.64877 -3.01052,-4.94757 l -2.361445,-2.36144 10.652113,-4.46538 c 35.25872,-14.78051 81.391386,-26.41632 135.152106,-34.08874 24.4898,-3.49504 48.37024,-5.67336 88.78557,-8.09881 l 10.28558,-0.61727 -2.03184,3.33267 c -2.69543,4.42111 -2.80136,14.07157 -0.20122,18.33266 l 1.83062,3 -27.58435,-0.32666 c -59.38508,-0.70324 -115.57987,5.25048 -163.58436,17.33143 -11.881406,2.99011 -32.840276,9.80378 -40.374426,13.12562 -6.674345,2.94275 -6.76556,2.94014 -7.557828,-0.21651 z m 410.432254,-3.41388 c 0,-1.4386 0.66667,-2 2.375,-2 1.30625,0 3.78125,-0.28125 5.5,-0.625 2.86508,-0.57302 3.125,-0.40667 3.125,2 0,2.51515 -0.23016,2.625 -5.5,2.625 -4.83333,0 -5.5,-0.24242 -5.5,-2 z m 17,0.0818 c 0,-1.05502 -0.25035,-2.57061 -0.55633,-3.36799 -0.35648,-0.92896 0.69209,-2.18636 2.91886,-3.50019 3.23241,-1.90717 3.57722,-1.93386 4.93574,-0.38201 1.47344,1.68312 4.70173,7.6009 4.70173,8.61874 0,0.30231 -2.7,0.54966 -6,0.54966 -5.24806,0 -6,-0.2404 -6,-1.91821 z m -52,-0.34966 c 0,-1.685 4.82517,-8.73213 5.97889,-8.73213 0.49873,0 2.42978,0.89859 4.29122,1.99686 2.88969,1.70496 3.31999,2.43586 2.94366,5 -0.43708,2.97801 -0.49419,3.00313 -6.82727,3.00313 -4.49053,0 -6.3865,-0.37639 -6.3865,-1.26787 z m 18.01531,0.51787 c 0.008,-0.4125 0.36613,-1.30223 0.79491,-1.97717 1.09836,-1.72895 11.18978,-0.49661 11.18978,1.36645 0,0.99642 -1.60631,1.36071 -6,1.36071 -3.3,0 -5.99311,-0.3375 -5.98469,-0.75 z m -32.51531,-9.93986 c -4.95,-1.32472 -13.95,-3.46657 -20,-4.75965 l -11,-2.35107 7,-0.091 c 6.15223,-0.08 21.02185,1.36903 35.80027,3.48871 l 4.80026,0.68851 -2.73735,2.85718 c -3.15554,3.29368 -2.22328,3.28243 -13.86318,0.16734 z m 40,1.96307 c -4.66994,-0.66487 -4.89244,-1.71471 -1.19444,-5.63573 4.63586,-4.91544 5.69444,-4.66216 5.69444,1.36251 0,2.75 -0.3375,4.93258 -0.75,4.85017 -0.4125,-0.0824 -2.1,-0.34204 -3.75,-0.57695 z m 9.5,-4.16623 c 0,-2.80885 0.41538,-5.10699 0.92308,-5.10699 1.46635,0 7.07692,6.00697 7.07692,7.57692 0,0.83845 -0.99345,1.42308 -2.41821,1.42308 -1.33002,0 -3.13002,0.27314 -4,0.60699 -1.31514,0.50466 -1.58179,-0.25394 -1.58179,-4.5 z m 12.96097,-0.17992 c -1.44744,-2.70456 -1.09189,-2.90861 2.46356,-1.4138 2.8647,1.20439 2.8809,1.2529 0.79199,2.37085 -1.803,0.96494 -2.30608,0.81705 -3.25555,-0.95705 z m -35.43465,0.11552 c -0.32544,-0.52658 0.75065,-1.65158 2.39132,-2.5 4.04677,-2.09266 4.39993,-1.95689 2.4904,0.95741 -1.67948,2.56321 -3.8308,3.24301 -4.88172,1.54259 z m -76.52632,-7.55382 c -4.125,-0.71563 -15.00475,-2.10661 -24.17723,-3.09106 l -16.67724,-1.7899 2.49867,-4.26365 c 3.28891,-5.61211 3.44679,-13.8299 0.366,-19.05144 l -2.13265,-3.61458 20.81122,0.66412 c 26.07784,0.83219 49.49638,3.36257 62.56131,6.75976 l 3.75009,0.97511 -18.25009,12.11857 c -10.03754,6.66522 -18.92508,12.22559 -19.75008,12.35639 -0.825,0.1308 -4.875,-0.3477 -9,-1.06332 z m -62.96782,-6.27868 c -7.43512,-4.10149 -9.96102,-12.00587 -6.05655,-18.95293 2.84284,-5.05816 7.24626,-7.64177 13.02437,-7.64177 5.80465,0 10.63391,2.80081 13.09517,7.59477 2.26144,4.40475 2.4003,7.66825 0.51797,12.1733 -3.02244,7.23371 -13.5268,10.71797 -20.58096,6.82663 z"
       style="fill:#01588d;fill-opacity:1" />
  </g>
</svg>
