<?xml version="1.0" encoding="UTF-8" standalone="no"?>
<svg
   xmlns:dc="http://purl.org/dc/elements/1.1/"
   xmlns:cc="http://creativecommons.org/ns#"
   xmlns:rdf="http://www.w3.org/1999/02/22-rdf-syntax-ns#"
   xmlns:svg="http://www.w3.org/2000/svg"
   xmlns="http://www.w3.org/2000/svg"
   height="69.599998"
   width="69.599998"
   version="1.1"
   id="svg2"
   enable-background="new 79 198 330 83"
   viewBox="79 198 69.599998 69.600002">
  <metadata
     id="metadata40">
    <rdf:RDF>
      <cc:Work
         rdf:about="">
        <dc:format>image/svg+xml</dc:format>
        <dc:type
           rdf:resource="http://purl.org/dc/dcmitype/StillImage" />
        <dc:title></dc:title>
      </cc:Work>
    </rdf:RDF>
  </metadata>
  <defs
     id="defs38" />
  <circle
     cx="113.8"
     cy="232.89999"
     r="32.299999"
     id="circle6"
     style="fill:#ffffff" />
  <g
     transform="translate(-141.4,-6.1)"
     id="g28"
     style="fill:#cb6015">
    <path
       d="m 255.2,209.6 c -16.3,0 -29.3,13.2 -29.3,29.3 0,16.3 13.2,29.3 29.3,29.3 16.1,0 29.3,-13.2 29.3,-29.3 0.2,-16.2 -13,-29.3 -29.3,-29.3 z m 14.4,23.8 -2.4,6.4 0,0.7 2.4,6.2 c 0,0.2 0.2,0.3 0.3,0.5 l 0.2,0.2 c 0.2,0.2 0.2,0.2 0,0.2 l -2.8,0 c -0.2,0 -0.3,-0.2 -0.5,-0.3 l -1.4,-3.8 c 0,-0.2 -0.2,-0.2 -0.2,0 l -1.4,3.8 c 0,0.2 -0.3,0.3 -0.5,0.3 l -2.1,0 c -0.2,0 -0.3,-0.2 -0.2,-0.3 l 2.4,-6.8 0,-0.7 -2.4,-6.4 c 0,-0.2 0,-0.3 0.2,-0.3 l 2.3,0 c 0.2,0 0.3,0.2 0.5,0.3 l 1.2,3.6 c 0,0.2 0.2,0.2 0.2,0 l 1.2,-3.6 c 0,-0.2 0.2,-0.3 0.5,-0.3 l 2.3,0 c 0.2,0 0.4,0.1 0.2,0.3 z m -25.7,-14.2 22.9,0 c 0.3,0 0.7,0.3 0.7,0.7 l -0.3,4 c 0,0.3 -0.3,0.7 -0.9,0.7 l -7.6,0 c -0.3,0 -0.7,0.3 -0.7,0.7 l 0,25.7 c 0,0.3 0.2,1 0.3,1.4 l 0.5,1 c 0.2,0.3 0,0.7 -0.5,0.7 l -6.6,0 c -0.3,0 -0.7,-0.3 -0.5,-0.7 l 0.5,-1 c 0.2,-0.3 0.3,-1 0.3,-1.4 l 0,-25.5 c 0,-0.3 -0.3,-0.7 -0.7,-0.7 l -7.1,0 c -0.3,0 -0.7,-0.3 -0.7,-0.7 l -0.2,-4 c -0.2,-0.6 0.1,-0.9 0.6,-0.9 z m -2.9,13.9 6.8,0 c 0,0 0.2,0 0.2,0.2 l 0,2.3 c 0,0 0,0.2 -0.2,0.2 l -3.5,0 c 0,0 -0.2,0 -0.2,0.2 l 0,3 c 0,0 0,0.2 0.2,0.2 l 2.6,0 c 0,0 0.2,0 0.2,0.2 l 0,2.4 c 0,0 0,0.2 -0.2,0.2 l -2.6,0 c 0,0 -0.2,0 -0.2,0.2 l 0,3.1 c 0,0 0,0.2 0.2,0.2 l 3.6,0 c 0,0 0.2,0 0.2,0.2 l 0,2.4 c 0,0 0,0.2 -0.2,0.2 l -6.6,0 c 0,0 -0.2,0 -0.2,-0.2 l 0,-13.9 -0.1,-1.1 z m 26.9,26.5 c -3.8,2.4 -8.2,3.6 -12.7,3.6 l -0.2,0 c -4.5,0 -9,-1.2 -12.7,-3.6 -3.8,-2.4 -6.9,-5.9 -9,-10.1 -2.1,-4.2 -2.8,-8.9 -2.1,-13.2 0.3,-2.3 0.9,-4.3 1.9,-6.4 0.5,-1 1,-2.1 1.6,-3 0.3,-0.3 0.2,-1 0.2,-1.7 -0.2,-0.9 -0.2,-1.7 0.7,-2.3 0.9,-0.5 2.4,0 3.6,1.2 0.7,0.9 1.2,1.7 1.2,2.6 0,0.5 -0.3,1 -0.5,1.4 -1.7,2.4 -3,5.6 -3.3,8.7 -0.2,1.7 -0.2,3.5 0.2,5.2 0.3,1.7 0.9,3.5 1.6,5 1.6,3.1 4,5.9 6.9,7.6 3,1.9 6.3,2.8 9.7,2.8 l 0.2,0 c 3.5,0 6.9,-1 9.7,-2.8 3,-1.7 5.4,-4.5 6.9,-7.6 0.7,-1.6 1.2,-3.3 1.6,-5 0.3,-1.7 0.3,-3.5 0.2,-5.2 -0.3,-3.3 -1.6,-6.3 -3.3,-8.7 -0.2,-0.3 -0.5,-0.9 -0.5,-1.4 0,-0.9 0.5,-1.9 1.2,-2.6 1,-1 2.4,-1.6 3.5,-1.2 0.9,0.3 0.7,1.4 0.7,2.3 0,0.7 -0.2,1.2 0.2,1.7 0.7,0.9 1.2,1.9 1.6,3 1,2.1 1.6,4.2 1.9,6.4 0.7,4.3 -0.2,9 -2.1,13.2 -2,4.2 -5.1,7.7 -8.9,10.1 z"
       id="path30" />
    <path
       d="m 255.2,205.6 c -18.4,0 -33.3,14.9 -33.3,33.3 0,18.4 14.9,33.3 33.3,33.3 18.4,0 33.3,-14.9 33.3,-33.3 0,-18.4 -14.9,-33.3 -33.3,-33.3 z m 0,64.3 c -17,0 -31.1,-13.9 -31.1,-31.1 0,-17 13.9,-31.1 31.1,-31.1 17,0 30.9,13.9 30.9,31.1 0.2,17.2 -13.7,31.1 -30.9,31.1 z"
       id="path32" />
  </g>
</svg>
