<?xml version="1.0" encoding="UTF-8" standalone="no"?>
<svg
   xmlns:dc="http://purl.org/dc/elements/1.1/"
   xmlns:cc="http://creativecommons.org/ns#"
   xmlns:rdf="http://www.w3.org/1999/02/22-rdf-syntax-ns#"
   xmlns:svg="http://www.w3.org/2000/svg"
   xmlns="http://www.w3.org/2000/svg"
   viewBox="0 0 406.18731 406.62911"
   height="4.5181012in"
   width="4.5131922in"
   version="1.1"
   id="svg2">
  <metadata
     id="metadata8">
    <rdf:RDF>
      <cc:Work
         rdf:about="">
        <dc:format>image/svg+xml</dc:format>
        <dc:type
           rdf:resource="http://purl.org/dc/dcmitype/StillImage" />
        <dc:title></dc:title>
      </cc:Work>
    </rdf:RDF>
  </metadata>
  <defs
     id="defs6" />
  <g
     transform="translate(3.2446258,14.520937)"
     id="g4166">
    <path
       id="path4144"
       d="M 198.878,382.30516 C 196.94405,379.72405 5.7553747,112.02008 5.7553747,111.89326 c 0,-0.0795 17.2462483,-0.11028 38.3249983,-0.0684 l 38.325,0.0761 0.19194,4.65 c 1.02012,24.71374 9.93017,48.38289 25.635657,68.1 3.75556,4.71484 13.46177,14.48953 17.42705,17.55 2.01849,1.5579 2.77005,2.32695 2.91144,2.97915 0.36398,1.67909 2.95158,7.84024 4.73359,11.27085 3.68772,7.09933 9.3666,14.65767 14.97185,19.92688 11.46591,10.7785 25.30316,17.44037 41.28692,19.87736 4.52245,0.68953 15.82472,0.69252 20.28311,0.005 16.9588,-2.61375 30.97194,-9.62321 42.66709,-21.34234 6.28034,-6.29321 11.08622,-13.06061 14.71239,-20.71727 1.65787,-3.50058 3.72897,-8.81991 3.72897,-9.57732 0,-0.24944 0.32354,-0.62658 0.71897,-0.8381 2.69243,-1.44018 13.35512,-11.71664 18.2418,-17.58103 16.24687,-19.49748 25.88545,-44.35669 26.89024,-69.35355 l 0.19899,-4.95 38.325,-0.0761 c 21.07875,-0.0419 38.325,-0.0115 38.325,0.0675 0,0.20702 -192.8838,270.1995 -193.50553,270.86277 -0.50202,0.53556 -0.54472,0.52044 -1.27185,-0.45 z m -6.67263,-154.95189 c -10.1922,-0.82275 -17.61996,-2.17665 -26.35097,-4.80313 -11.51705,-3.46459 -23.33779,-9.28909 -33.64617,-16.57869 -1.73407,-1.22625 -3.15286,-2.25623 -3.15286,-2.28884 0,-0.0326 -0.39222,-1.66182 -0.8716,-3.62046 -1.52001,-6.21034 -1.70225,-5.91884 1.88362,-3.01282 12.87226,10.43178 27.74636,17.7875 43.78858,21.65485 8.94756,2.15702 16.17929,2.97559 26.14941,2.95989 10.13046,-0.016 16.60788,-0.7889 26.10336,-3.11491 16.70542,-4.09216 31.38622,-11.59967 45.24406,-23.13705 l 1.14743,-0.95529 -0.20981,1.17209 c -0.11539,0.64465 -0.59688,2.72317 -1.06996,4.61894 -0.6438,2.57984 -1.03057,3.57882 -1.53762,3.97147 -0.37261,0.28854 -2.22996,1.58689 -4.12746,2.88523 -17.2397,11.79603 -36.27549,18.52129 -56.98497,20.13252 -3.66954,0.2855 -13.41094,0.35467 -16.36504,0.1162 z m -2.85,-21.55795 c -20.88164,-2.36796 -40.4439,-11.50723 -55.11079,-25.74715 -2.21577,-2.15126 -4.84365,-4.83064 -5.83975,-5.95418 l -1.81108,-2.0428 0.3401,-2.0251 c 0.47045,-2.80127 2.17196,-9.67743 2.39146,-9.66443 0.099,0.006 0.89942,1.00511 1.77863,2.22054 2.25315,3.11478 3.83251,4.94283 7.50046,8.68146 13.24376,13.49898 29.68935,21.87229 48.80097,24.84714 5.66073,0.88113 18.18013,0.95619 23.70001,0.14209 19.61533,-2.89295 36.27671,-11.26943 49.69661,-24.98488 3.68258,-3.76369 5.2286,-5.55126 7.48726,-8.65708 0.88887,-1.22227 1.69715,-2.23077 1.79619,-2.24112 0.21865,-0.0228 1.91889,6.8424 2.39146,9.65628 l 0.3401,2.0251 -1.79619,2.0249 c -2.59869,2.92959 -8.83908,8.92316 -11.54906,11.09228 -13.69978,10.96554 -28.94235,17.61505 -46.34892,20.21953 -5.44657,0.81495 -18.23982,1.03425 -23.76746,0.40742 z M 123.9831,190.45513 c -1.71716,-1.46982 -7.13325,-7.42391 -9.78242,-10.75413 -10.40998,-13.0862 -17.664867,-28.18999 -21.254847,-44.25 -1.58583,-7.09433 -2.58746,-15.13035 -2.58944,-20.775 l -10e-4,-2.925 6.5625,0 6.562497,0 0.1875,0.9375 c 0.10313,0.51562 0.1875,1.85132 0.1875,2.96821 0,5.00831 1.21721,13.09563 3.01943,20.06164 3.05337,11.80198 8.86983,23.68847 16.60441,33.93265 2.1081,2.79209 2.14773,2.87743 1.95062,4.2 -0.47304,3.17402 -0.60863,9.37587 -0.29111,13.31547 0.18465,2.29101 0.28726,4.21393 0.22804,4.27315 -0.0592,0.0592 -0.68187,-0.38379 -1.38365,-0.98449 z m 150.17557,-1.04325 c 0.30738,-2.75461 0.22036,-13.38994 -0.12608,-15.41088 l -0.25714,-1.5 1.85348,-2.4 c 6.364,-8.24048 12.34676,-19.53339 15.40299,-29.07434 2.51033,-7.83672 4.52346,-18.81011 4.52346,-24.65695 0,-1.00923 0.0858,-2.46131 0.19077,-3.22684 l 0.19078,-1.39187 6.55922,0 6.55923,0 0,2.925 c 0,3.69226 -0.45312,8.71501 -1.23465,13.725 -2.87166,18.40891 -10.43476,35.73745 -22.12816,50.7 -3.16481,4.04961 -9.3412,10.78549 -10.92133,11.91064 l -0.85824,0.61112 0.24669,-2.21088 z m -81.9533,-4.67078 c -7.9404,-0.72149 -17.59695,-3.55544 -25.41091,-7.45745 -7.45732,-3.72391 -13.02097,-7.7782 -19.30195,-14.06553 -4.43239,-4.43686 -7.81122,-8.68497 -10.75736,-13.52489 l -1.77021,-2.90813 0.5428,-0.94205 c 8.70121,-15.1012 22.01106,-26.49305 38.09763,-32.60761 2.31596,-0.88031 3.02155,-1.27974 3.09448,-1.75178 0.0667,-0.43178 -0.10959,-0.66163 -0.6,-0.78223 -0.38196,-0.0939 -11.81754,-0.13245 -25.4124,-0.0856 l -24.71793,0.0852 0.18139,-3.9 c 0.53067,-11.410075 4.56837,-24.220714 10.7677,-34.163359 4.1832,-6.709119 11.30077,-14.704923 17.03676,-19.138923 14.31753,-11.067645 30.27471,-16.291599 48.14878,-15.762624 19.01895,0.562854 36.13972,7.974447 49.66583,21.500364 12.93079,12.9306 20.61731,29.917831 21.48845,47.489542 l 0.18963,3.825 -24.00447,0 c -13.20246,0 -24.63768,0.0868 -25.41159,0.19287 -1.16992,0.16035 -1.39191,0.2905 -1.31687,0.77206 0.0672,0.43142 0.85565,0.87012 3.09025,1.71951 14.62763,5.56001 26.68831,15.21121 35.44723,28.36556 0.98879,1.485 2.1069,3.25705 2.48468,3.9379 l 0.68686,1.23789 -0.84254,1.46211 c -6.84747,11.88271 -17.85172,22.34257 -30.1908,28.69722 -7.78505,4.00931 -16.85067,6.74132 -25.58543,7.7104 -2.51138,0.27863 -12.88246,0.34151 -15.60001,0.0946 z m -64.5633,-28.94481 c -5.59337,-8.88818 -9.70133,-19.93913 -11.48003,-30.88281 -0.63497,-3.90668 -1.32126,-12.43437 -1.03763,-12.89329 0.0915,-0.14805 2.31841,-0.26919 4.94867,-0.26919 4.45749,0 4.78229,0.0378 4.78229,0.55643 0,1.99512 0.70968,8.84852 1.21606,11.74357 1.21789,6.96278 3.12382,12.97308 6.16755,19.44918 l 1.5976,3.39917 -1.44476,2.90083 c -0.79461,1.59545 -1.82728,3.91332 -2.2948,5.15082 -0.46753,1.2375 -0.94279,2.36038 -1.05614,2.49529 -0.11335,0.13491 -0.74281,-0.60759 -1.39881,-1.65 z m 142.53497,1.40275 c -0.91071,-2.52661 -2.11942,-5.35378 -3.25896,-7.62276 l -1.3442,-2.67646 1.60369,-3.39941 c 4.22957,-8.96557 6.5943,-18.29174 7.23447,-28.5317 l 0.20207,-3.23229 4.84563,0.0823 4.84564,0.0823 -0.0905,3.15 c -0.29676,10.329 -2.89722,21.28438 -7.44007,31.34398 -1.57375,3.48489 -4.6543,9.13079 -5.81313,10.65406 -0.54668,0.71861 -0.57755,0.72452 -0.78463,0.15 z M 104.85326,106.651 c 1.7128,-37.443775 25.80513,-70.598629 61.10211,-84.086133 6.93871,-2.651384 13.88783,-4.400222 21.9,-5.511429 5.21267,-0.722943 18.07162,-0.721899 23.55001,0.0019 11.37071,1.502313 21.25901,4.544198 31.29245,9.626332 30.31254,15.353895 50.23997,45.953301 51.84676,79.61288 l 0.20319,4.25643 -4.6962,0 -4.6962,0 0,-1.76822 c 0,-3.83258 -0.99793,-11.527725 -2.14388,-16.531771 C 280.37705,79.87383 274.40798,67.509618 266.55643,57.752046 248.86255,35.762847 220.76676,23.603753 193.10537,25.964427 172.78652,27.698475 154.7882,35.777355 140.33633,49.650798 124.66276,64.69704 115.41067,84.928794 114.17346,106.86177 l -0.2065,3.66077 -4.64948,0.0892 -4.64948,0.0892 0.18526,-4.05 z m 207.30904,3.97871 -1.84311,-0.10568 -0.19953,-3.36152 C 309.41223,95.243715 307.66881,85.799869 304.38578,76.103001 290.79827,35.970402 255.81169,7.2882977 213.76847,1.814637 204.9723,0.66945301 194.30144,0.66733501 185.59199,1.809037 161.15175,5.0128727 139.08613,15.880489 121.68808,33.282584 112.63763,42.335135 105.86868,51.788531 100.40869,63.000998 93.622583,76.936757 90.323003,90.091552 89.290783,107.326 l -0.19315,3.225 -2.82113,0 -2.82113,0 0,-1.89003 c 0,-1.03952 0.14126,-3.70577 0.31393,-5.925 2.85055,-36.638663 22.088227,-68.973164 53.086067,-89.226536 6.19003,-4.0444373 15.58892,-8.6870023 23.33408,-11.525821 16.69306,-4.053459 31.08683,-7.8651985 48.02509,-6.6017592 24.07147,1.7310954 47.60121,11.2967789 66.19084,26.9089502 4.90057,4.115663 12.00296,11.37167 15.91593,16.260194 15.62706,19.5231 24.35715,42.582987 25.50846,67.378942 l 0.2103,4.52893 -0.71733,0.19197 c -0.39456,0.10558 -0.85236,0.1678 -1.01736,0.13826 -0.165,-0.0296 -1.12938,-0.10126 -2.14308,-0.15939 z"
       style="fill:#bd282e" />
    <path
       id="path4142"
       d="M 199.16531,381.97973 C 197.23136,379.39862 6.0426811,111.69465 6.0426811,111.56783 c 0,-0.0795 17.2462499,-0.11028 38.3249999,-0.0684 l 38.325,0.0761 0.19194,4.65 c 1.02012,24.71374 9.93017,48.38289 25.635659,68.1 3.75556,4.71484 13.46177,14.48953 17.42705,17.55 2.01849,1.5579 2.77005,2.32695 2.91144,2.97915 0.36398,1.67909 2.95158,7.84024 4.73359,11.27085 3.68772,7.09933 9.3666,14.65767 14.97185,19.92688 11.46591,10.7785 25.30316,17.44037 41.28692,19.87736 4.52245,0.68953 15.82472,0.69252 20.28311,0.005 16.9588,-2.61375 30.97194,-9.62321 42.66709,-21.34234 6.28034,-6.29321 11.08622,-13.06061 14.71239,-20.71727 1.65787,-3.50058 3.72897,-8.81991 3.72897,-9.57732 0,-0.24944 0.32354,-0.62658 0.71897,-0.8381 2.69243,-1.44018 13.35512,-11.71664 18.2418,-17.58103 16.24687,-19.49748 25.88545,-44.35669 26.89024,-69.35355 l 0.19899,-4.95 38.325,-0.0761 c 21.07875,-0.0419 38.325,-0.0115 38.325,0.0675 0,0.20702 -192.8838,270.1995 -193.50553,270.86277 -0.50202,0.53556 -0.54472,0.52044 -1.27185,-0.45 z M 124.27041,190.1297 c -1.71716,-1.46982 -7.13325,-7.42391 -9.78242,-10.75413 -10.40998,-13.0862 -17.664869,-28.18999 -21.254849,-44.25 -1.58583,-7.09433 -2.58746,-15.13035 -2.58944,-20.775 l -10e-4,-2.925 6.5625,0 6.562499,0 0.1875,0.9375 c 0.10313,0.51562 0.1875,1.85132 0.1875,2.96821 0,5.00831 1.21721,13.09563 3.01943,20.06164 3.05337,11.80198 8.86983,23.68847 16.60441,33.93265 2.1081,2.79209 2.14773,2.87743 1.95062,4.2 -0.47304,3.17402 -0.60863,9.37587 -0.29111,13.31547 0.18465,2.29101 0.28726,4.21393 0.22804,4.27315 -0.0592,0.0592 -0.68187,-0.38379 -1.38365,-0.98449 z m 150.17557,-1.04325 c 0.30738,-2.75461 0.22036,-13.38994 -0.12608,-15.41088 l -0.25714,-1.5 1.85348,-2.4 c 6.364,-8.24048 12.34676,-19.53339 15.40299,-29.07434 2.51033,-7.83672 4.52346,-18.81011 4.52346,-24.65695 0,-1.00923 0.0858,-2.46131 0.19077,-3.22684 l 0.19078,-1.39187 6.55922,0 6.55923,0 0,2.925 c 0,3.69226 -0.45312,8.71501 -1.23465,13.725 -2.87166,18.40891 -10.43476,35.73745 -22.12816,50.7 -3.16481,4.04961 -9.3412,10.78549 -10.92133,11.91064 l -0.85824,0.61112 0.24669,-2.21088 z m -146.5166,-33.61559 c -5.59337,-8.88818 -9.70133,-19.93913 -11.48003,-30.88281 -0.63497,-3.90668 -1.32126,-12.43437 -1.03763,-12.89329 0.0915,-0.14805 2.31841,-0.26919 4.94867,-0.26919 4.45749,0 4.78229,0.0378 4.78229,0.55643 0,1.99512 0.70968,8.84852 1.21606,11.74357 1.21789,6.96278 3.12382,12.97308 6.16755,19.44918 l 1.5976,3.39917 -1.44476,2.90083 c -0.79461,1.59545 -1.82728,3.91332 -2.2948,5.15082 -0.46753,1.2375 -0.94279,2.36038 -1.05614,2.49529 -0.11335,0.13491 -0.74281,-0.60759 -1.39881,-1.65 z m 142.53497,1.40275 c -0.91071,-2.52661 -2.11942,-5.35378 -3.25896,-7.62276 l -1.3442,-2.67646 1.60369,-3.39941 c 4.22957,-8.96557 6.5943,-18.29174 7.23447,-28.5317 l 0.20207,-3.23229 4.84563,0.0823 4.84564,0.0823 -0.0905,3.15 c -0.29676,10.329 -2.89722,21.28438 -7.44007,31.34398 -1.57375,3.48489 -4.6543,9.13079 -5.81313,10.65406 -0.54668,0.71861 -0.57755,0.72452 -0.78463,0.15 z"
       style="fill:#221e1f" />
  </g>
</svg>
