<?xml version="1.0" encoding="UTF-8" standalone="no"?>
<svg
   xmlns:dc="http://purl.org/dc/elements/1.1/"
   xmlns:cc="http://creativecommons.org/ns#"
   xmlns:rdf="http://www.w3.org/1999/02/22-rdf-syntax-ns#"
   xmlns:svg="http://www.w3.org/2000/svg"
   xmlns="http://www.w3.org/2000/svg"
   viewBox="0 0 363.52624 140.04108"
   height="140.04108"
   width="363.52625"
   xml:space="preserve"
   version="1.1"
   id="svg2"><metadata
     id="metadata8"><rdf:RDF><cc:Work
         rdf:about=""><dc:format>image/svg+xml</dc:format><dc:type
           rdf:resource="http://purl.org/dc/dcmitype/StillImage" /><dc:title></dc:title></cc:Work></rdf:RDF></metadata><defs
     id="defs6"><clipPath
       id="clipPath18"
       clipPathUnits="userSpaceOnUse"><path
         id="path20"
         d="m 0,171.5 352.301,0 0,-171.5 L 0,0 0,171.5 Z" /></clipPath></defs><g
     transform="matrix(1.25,0,0,-1.25,-40.633678,177.04672)"
     id="g10"><path
       id="path12"
       style="fill:#bf5700;fill-opacity:1;fill-rule:nonzero;stroke:none"
       d="m 74.925,101.623 0.046,0 0,0.015 -0.046,0 0,-0.015 z" /><g
       id="g14"><g
         clip-path="url(#clipPath18)"
         id="g16"><g
           transform="translate(85.6763,110.6499)"
           id="g22"><path
             id="path24"
             style="fill:#bf5700;fill-opacity:1;fill-rule:nonzero;stroke:none"
             d="m 0,0 0,1.445 -0.893,0 0,2.469 -0.601,0 c -1.276,0 -2.543,0.186 -3.77,0.365 -1.121,0.164 -2.177,0.321 -3.155,0.321 -0.919,0 -1.678,-0.145 -2.309,-0.442 -0.63,0.297 -1.39,0.442 -2.309,0.442 -0.977,0 -2.034,-0.157 -3.154,-0.321 -1.227,-0.179 -2.496,-0.365 -3.771,-0.365 l -0.601,0 0,-2.469 -0.892,0 0,-1.445 0.892,0 0,-1.957 -0.881,0 0,-1.445 0.881,0 0,-2.68 0.601,0 c 1.363,0 2.699,0.207 3.992,0.406 1.092,0.168 2.124,0.328 3.005,0.328 0.709,0 1.244,-0.103 1.656,-0.318 l 1.162,0 c 0.413,0.215 0.947,0.318 1.657,0.318 0.881,0 1.912,-0.16 3.004,-0.328 1.293,-0.199 2.631,-0.406 3.992,-0.406 l 0.601,0 0,2.68 0.881,0 0,1.445 -0.881,0 0,1.957 L 0,0 Z m -16.153,-4.484 c -1.001,-0.157 -2.03,-0.311 -3.053,-0.368 l 0.273,7.6 c 0.998,0.065 1.97,0.201 2.916,0.34 1.076,0.158 2.091,0.307 2.98,0.307 0.691,0 1.236,-0.088 1.685,-0.276 l 0,-1.055 -0.226,-6.357 c -0.408,0.098 -0.863,0.148 -1.387,0.148 -0.974,0 -2.05,-0.166 -3.188,-0.339 m 10.85,0 c -1.138,0.173 -2.215,0.339 -3.187,0.339 -0.523,0 -0.979,-0.05 -1.387,-0.148 l -0.227,6.357 0,1.055 c 0.449,0.188 0.993,0.276 1.685,0.276 0.888,0 1.905,-0.149 2.98,-0.307 0.946,-0.139 1.918,-0.275 2.916,-0.34 l 0.273,-7.6 c -1.023,0.057 -2.052,0.211 -3.053,0.368" /></g><g
           transform="translate(69.687,112.646)"
           id="g26"><path
             id="path28"
             style="fill:#bf5700;fill-opacity:1;fill-rule:nonzero;stroke:none"
             d="M 0,0 C -0.06,-0.008 -0.118,-0.018 -0.178,-0.025 -0.744,-0.109 -1.319,-0.193 -1.9,-0.26 l -0.034,-0.974 c 0.643,0.07 1.274,0.164 1.896,0.255 L 0,-0.973 0,0 Z" /></g><g
           transform="translate(70.4097,112.7495)"
           id="g30"><path
             id="path32"
             style="fill:#bf5700;fill-opacity:1;fill-rule:nonzero;stroke:none"
             d="m 0,0 0,-0.973 c 1.024,0.143 1.966,0.244 2.78,0.178 L 2.815,0.164 C 1.944,0.23 0.991,0.135 0,0" /></g><g
           transform="translate(69.687,108.2378)"
           id="g34"><path
             id="path36"
             style="fill:#bf5700;fill-opacity:1;fill-rule:nonzero;stroke:none"
             d="m 0,0 c -0.06,-0.01 -0.118,-0.018 -0.178,-0.027 -0.618,-0.09 -1.246,-0.182 -1.881,-0.252 l -0.035,-0.973 c 0.698,0.074 1.383,0.174 2.056,0.272 L 0,-0.975 0,0 Z" /></g><g
           transform="translate(70.4097,108.3394)"
           id="g38"><path
             id="path40"
             style="fill:#bf5700;fill-opacity:1;fill-rule:nonzero;stroke:none"
             d="m 0,0 0,-0.973 c 0.959,0.133 1.845,0.233 2.622,0.19 L 2.657,0.176 C 1.829,0.219 0.933,0.127 0,0" /></g><g
           transform="translate(69.5376,110.4194)"
           id="g42"><path
             id="path44"
             style="fill:#bf5700;fill-opacity:1;fill-rule:nonzero;stroke:none"
             d="m 0,0 0,-0.975 0.111,0.018 c 1.288,0.187 2.465,0.361 3.463,0.295 L 3.607,0.295 C 2.506,0.363 1.274,0.187 0,0" /></g><g
           transform="translate(68.8149,110.3159)"
           id="g46"><path
             id="path48"
             style="fill:#bf5700;fill-opacity:1;fill-rule:nonzero;stroke:none"
             d="m 0,0 c -0.366,-0.053 -0.735,-0.102 -1.107,-0.145 l -0.036,-0.972 c 0.386,0.041 0.767,0.092 1.143,0.144 L 0,0 Z" /></g><g
           transform="translate(79.0474,112.8062)"
           id="g50"><path
             id="path52"
             style="fill:#bf5700;fill-opacity:1;fill-rule:nonzero;stroke:none"
             d="m 0,0 c -0.834,0.102 -1.635,0.164 -2.375,0.107 l 0.034,-0.959 C -1.645,-0.795 -0.854,-0.861 0,-0.971 L 0,0 Z" /></g><g
           transform="translate(82.1099,112.3862)"
           id="g54"><path
             id="path56"
             style="fill:#bf5700;fill-opacity:1;fill-rule:nonzero;stroke:none"
             d="M 0,0 C -0.581,0.066 -1.156,0.15 -1.723,0.234 -1.93,0.264 -2.135,0.295 -2.34,0.322 l 0,-0.972 c 0.158,-0.022 0.317,-0.045 0.479,-0.069 0.621,-0.092 1.253,-0.185 1.896,-0.256 L 0,0 Z" /></g><g
           transform="translate(78.8501,110.6245)"
           id="g58"><path
             id="path60"
             style="fill:#bf5700;fill-opacity:1;fill-rule:nonzero;stroke:none"
             d="m 0,0 c -0.734,0.084 -1.439,0.131 -2.1,0.09 l 0.036,-0.957 C -1.441,-0.826 -0.748,-0.877 0,-0.969 L 0,0 Z" /></g><g
           transform="translate(82.189,110.1714)"
           id="g62"><path
             id="path64"
             style="fill:#bf5700;fill-opacity:1;fill-rule:nonzero;stroke:none"
             d="m 0,0 c -0.607,0.068 -1.21,0.156 -1.802,0.244 -0.273,0.039 -0.546,0.08 -0.814,0.117 l 0,-0.972 c 0.22,-0.032 0.445,-0.065 0.676,-0.098 0.646,-0.096 1.305,-0.191 1.975,-0.264 L 0,0 Z" /></g><g
           transform="translate(80.2954,107.2515)"
           id="g66"><path
             id="path68"
             style="fill:#bf5700;fill-opacity:1;fill-rule:nonzero;stroke:none"
             d="M 0,0 C 0.656,-0.098 1.326,-0.193 2.008,-0.266 L 1.974,0.707 C 1.338,0.777 0.71,0.869 0.092,0.959 0.061,0.965 0.031,0.969 0,0.973 L 0,0 Z" /></g><g
           transform="translate(79.5728,108.3276)"
           id="g70"><path
             id="path72"
             style="fill:#bf5700;fill-opacity:1;fill-rule:nonzero;stroke:none"
             d="m 0,0 c -0.963,0.133 -1.891,0.23 -2.744,0.187 l 0.035,-0.958 C -1.907,-0.729 -0.992,-0.832 0,-0.973 L 0,0 Z" /></g><g
           transform="translate(66.0601,93.8901)"
           id="g74"><path
             id="path76"
             style="fill:#bf5700;fill-opacity:1;fill-rule:nonzero;stroke:none"
             d="m 0,0 0,-0.002 5.446,-3.959 -2.098,-6.451 c 0.002,-0.012 0.007,-0.024 0.017,-0.031 0.01,-0.008 0.022,-0.008 0.033,-0.008 l 5.491,3.992 5.488,-3.99 c 0.012,-0.002 0.024,0 0.033,0.006 0.018,0.013 0.021,0.037 0.011,0.058 l -2.088,6.426 5.445,3.957 L 17.776,0 c 0.028,0.01 0.041,0.035 0.034,0.061 -0.007,0.023 -0.036,0.035 -0.061,0.027 l 0,0.002 -6.732,0 -2.079,6.402 -0.003,0 C 8.935,6.52 8.915,6.543 8.889,6.543 8.863,6.543 8.843,6.52 8.843,6.492 L 8.84,6.492 6.761,0.09 0.029,0.09 0.027,0.086 C 0.002,0.096 -0.025,0.082 -0.033,0.059 -0.041,0.035 -0.027,0.008 0,0 m 7.636,-1.113 1.253,3.134 1.254,-3.134 3.37,-0.225 -2.596,-2.162 0.83,-3.271 -2.858,1.8 -2.857,-1.8 0.828,3.271 -2.594,2.162 3.37,0.225 z" /></g><g
           transform="translate(88.4663,89.2866)"
           id="g78"><path
             id="path80"
             style="fill:#bf5700;fill-opacity:1;fill-rule:nonzero;stroke:none"
             d="M 0,0 C 1.122,0.338 2.063,1.076 2.649,2.084 3.235,3.09 3.417,4.275 3.159,5.42 L 3.046,5.922 2.552,5.775 C 1.983,5.605 1.462,5.332 1.008,4.971 1.112,5.531 1.112,6.109 1.001,6.678 0.781,7.826 0.139,8.838 -0.808,9.527 L -1.225,9.832 -1.499,9.395 C -2.12,8.406 -2.341,7.227 -2.124,6.078 -1.903,4.937 -1.266,3.932 -0.328,3.24 -0.502,2.848 -0.62,2.436 -0.678,2.014 -0.956,2.775 -1.431,3.459 -2.069,3.986 l -0.399,0.33 -0.301,-0.42 C -3.448,2.947 -3.741,1.783 -3.591,0.623 -3.44,-0.531 -2.858,-1.582 -1.956,-2.33 l 0.021,-0.014 c -0.265,-0.361 -0.474,-0.754 -0.623,-1.172 -0.115,0.803 -0.437,1.569 -0.955,2.219 l -0.322,0.404 -0.381,-0.349 c -0.859,-0.789 -1.386,-1.865 -1.48,-3.033 -0.09,-1.162 0.262,-2.307 0.99,-3.225 l 0.019,-0.023 c -0.335,-0.295 -0.62,-0.639 -0.853,-1.016 0.055,0.812 -0.104,1.629 -0.475,2.371 l -0.231,0.461 -0.444,-0.264 c -1.006,-0.595 -1.744,-1.541 -2.077,-2.662 -0.328,-1.121 -0.22,-2.312 0.305,-3.361 l 0.012,-0.026 c -0.389,-0.22 -0.738,-0.496 -1.043,-0.818 0.221,0.783 0.234,1.615 0.023,2.416 l -0.131,0.5 -0.49,-0.164 c -1.105,-0.375 -2.021,-1.148 -2.58,-2.178 -0.534,-0.994 -0.68,-2.142 -0.419,-3.24 -0.147,-0.101 -0.302,-0.207 -0.463,-0.316 -0.161,0.109 -0.315,0.215 -0.463,0.316 0.261,1.098 0.117,2.246 -0.42,3.242 -0.557,1.028 -1.473,1.801 -2.579,2.176 l -0.489,0.164 -0.131,-0.5 c -0.211,-0.801 -0.197,-1.633 0.024,-2.416 -0.306,0.322 -0.656,0.598 -1.044,0.818 l 0.012,0.026 c 0.525,1.049 0.632,2.24 0.304,3.361 -0.333,1.121 -1.07,2.067 -2.076,2.662 l -0.443,0.264 -0.232,-0.461 c -0.373,-0.742 -0.529,-1.559 -0.474,-2.371 -0.235,0.379 -0.52,0.721 -0.854,1.016 L -22.4,-7.5 c 0.73,0.918 1.082,2.063 0.99,3.227 -0.094,1.166 -0.619,2.242 -1.481,3.031 l -0.38,0.349 -0.321,-0.404 c -0.517,-0.65 -0.841,-1.416 -0.955,-2.219 -0.149,0.418 -0.358,0.811 -0.624,1.172 l 0.022,0.014 c 0.903,0.748 1.484,1.799 1.635,2.953 0.15,1.16 -0.142,2.324 -0.822,3.273 l -0.301,0.42 -0.397,-0.33 c -0.641,-0.527 -1.115,-1.211 -1.393,-1.974 -0.057,0.424 -0.175,0.836 -0.35,1.228 0.938,0.692 1.576,1.697 1.796,2.838 0.217,1.151 -0.004,2.328 -0.625,3.317 l -0.275,0.437 -0.417,-0.305 c -0.946,-0.689 -1.589,-1.701 -1.809,-2.847 -0.11,-0.571 -0.112,-1.149 -0.006,-1.709 -0.454,0.361 -0.976,0.634 -1.544,0.804 l -0.494,0.147 -0.114,-0.502 c -0.257,-1.145 -0.076,-2.33 0.51,-3.336 0.586,-1.008 1.526,-1.746 2.65,-2.084 l 0.435,-0.131 c 0.045,-0.365 0.137,-0.726 0.269,-1.074 -0.622,0.398 -1.333,0.641 -2.083,0.701 l -0.513,0.043 -0.008,-0.518 c -0.016,-1.171 0.406,-2.291 1.187,-3.154 0.781,-0.865 1.855,-1.394 3.023,-1.492 l 0.453,-0.039 c 0.119,-0.35 0.283,-0.684 0.485,-0.992 -0.508,0.189 -1.045,0.289 -1.598,0.289 -0.195,0 -0.392,-0.012 -0.585,-0.035 l -0.512,-0.067 0.1,-0.504 c 0.227,-1.152 0.871,-2.162 1.814,-2.847 0.784,-0.571 1.716,-0.871 2.691,-0.871 0.191,0 0.385,0.011 0.574,0.035 l 0.451,0.058 c 0.192,-0.318 0.419,-0.609 0.682,-0.873 -0.732,0.11 -1.483,0.045 -2.19,-0.201 l -0.488,-0.17 0.203,-0.474 c 0.459,-1.079 1.299,-1.934 2.361,-2.409 0.591,-0.263 1.216,-0.396 1.86,-0.396 0.514,0 1.021,0.086 1.509,0.254 l 0.359,0.125 c 0.602,-0.51 1.279,-1.018 2.209,-1.656 -0.424,-0.28 -0.895,-0.586 -1.42,-0.922 l 0.906,-0.563 c 0.512,0.33 0.965,0.627 1.378,0.903 0.413,-0.276 0.866,-0.573 1.378,-0.903 l 0.906,0.563 c -0.525,0.336 -0.995,0.642 -1.419,0.922 0.929,0.638 1.607,1.146 2.209,1.656 l 0.359,-0.125 c 0.488,-0.168 0.996,-0.254 1.509,-0.254 0.643,0 1.268,0.133 1.859,0.394 1.065,0.477 1.903,1.332 2.362,2.411 l 0.202,0.474 -0.487,0.17 c -0.707,0.246 -1.459,0.311 -2.189,0.199 0.261,0.264 0.49,0.557 0.68,0.875 l 0.452,-0.058 c 0.19,-0.024 0.383,-0.035 0.575,-0.035 0.974,0 1.904,0.3 2.689,0.871 0.944,0.685 1.588,1.695 1.815,2.847 l 0.099,0.504 -0.511,0.067 c -0.194,0.023 -0.391,0.035 -0.585,0.035 -0.552,0 -1.09,-0.1 -1.597,-0.289 0.201,0.308 0.363,0.642 0.484,0.992 l 0.452,0.039 c 1.169,0.098 2.243,0.627 3.023,1.492 0.782,0.863 1.203,1.983 1.187,3.154 L 1.894,-0.461 1.378,-0.504 c -0.748,-0.06 -1.46,-0.303 -2.082,-0.701 0.133,0.348 0.224,0.709 0.269,1.074 L 0,0 Z m -25.715,0.912 c 0.096,0.727 0.405,1.399 0.887,1.942 0.326,-0.649 0.453,-1.379 0.359,-2.106 -0.095,-0.725 -0.405,-1.398 -0.887,-1.939 -0.329,0.646 -0.455,1.377 -0.359,2.103 m -1.446,5.586 c 0.139,0.721 0.489,1.373 1.001,1.885 0.287,-0.666 0.369,-1.403 0.232,-2.123 -0.138,-0.719 -0.488,-1.373 -1.002,-1.887 -0.289,0.668 -0.371,1.404 -0.231,2.125 m -0.193,-5.375 c -0.654,0.313 -1.2,0.813 -1.569,1.445 -0.369,0.633 -0.533,1.356 -0.483,2.082 0.653,-0.312 1.199,-0.81 1.57,-1.445 0.367,-0.633 0.533,-1.355 0.482,-2.082 m 0.25,-4.611 c -0.49,0.541 -0.802,1.217 -0.902,1.935 0.702,-0.166 1.34,-0.545 1.833,-1.09 0.491,-0.539 0.803,-1.212 0.902,-1.933 -0.705,0.17 -1.342,0.545 -1.833,1.088 m 3.948,1.123 c 0.453,-0.567 0.726,-1.252 0.787,-1.985 0.057,-0.732 -0.11,-1.453 -0.469,-2.084 -0.455,0.567 -0.728,1.256 -0.785,1.989 -0.057,0.73 0.107,1.453 0.467,2.08 m -0.916,-6.674 c -0.594,0.43 -1.037,1.023 -1.284,1.707 0.728,-0.02 1.424,-0.254 2.018,-0.686 0.594,-0.427 1.037,-1.021 1.283,-1.709 -0.73,0.024 -1.425,0.258 -2.017,0.688 m 7.268,-2.184 c 0.641,-0.332 1.17,-0.851 1.522,-1.496 0.346,-0.648 0.488,-1.375 0.413,-2.097 -0.646,0.336 -1.175,0.855 -1.521,1.5 -0.347,0.648 -0.49,1.375 -0.414,2.093 m -3.665,1.965 c -0.207,0.703 -0.195,1.446 0.027,2.133 0.558,-0.459 0.97,-1.074 1.179,-1.779 0.206,-0.705 0.195,-1.446 -0.028,-2.135 -0.562,0.461 -0.973,1.078 -1.178,1.781 m 0.508,-4.586 c -0.669,0.297 -1.226,0.787 -1.609,1.406 0.711,0.129 1.447,0.043 2.118,-0.255 0.668,-0.299 1.224,-0.787 1.607,-1.407 -0.712,-0.13 -1.449,-0.043 -2.116,0.256 m 8.138,1.121 c 0.351,0.649 0.881,1.168 1.523,1.5 0.074,-0.718 -0.067,-1.445 -0.416,-2.093 -0.346,-0.645 -0.875,-1.164 -1.52,-1.5 -0.075,0.722 0.065,1.449 0.413,2.093 m 6.288,0.285 c -0.383,-0.619 -0.94,-1.109 -1.611,-1.406 -0.464,-0.209 -0.958,-0.314 -1.465,-0.314 -0.218,0 -0.435,0.019 -0.65,0.058 0.383,0.62 0.94,1.108 1.609,1.407 0.669,0.298 1.406,0.384 2.117,0.255 m -1.102,3.178 c -0.205,-0.701 -0.616,-1.318 -1.177,-1.779 -0.222,0.689 -0.235,1.43 -0.029,2.133 0.209,0.705 0.621,1.322 1.181,1.781 0.222,-0.687 0.232,-1.43 0.025,-2.135 m 1.902,4.908 c 0.058,0.735 0.334,1.42 0.787,1.987 0.359,-0.627 0.523,-1.35 0.465,-2.082 -0.055,-0.731 -0.33,-1.42 -0.786,-1.987 -0.359,0.631 -0.523,1.352 -0.466,2.082 m 1.703,-4.687 c -0.592,-0.43 -1.287,-0.664 -2.018,-0.688 0.246,0.688 0.69,1.282 1.281,1.709 0.596,0.432 1.291,0.666 2.02,0.686 -0.246,-0.684 -0.689,-1.277 -1.283,-1.707 M 2.302,4.65 C 2.353,3.924 2.187,3.201 1.817,2.568 1.448,1.936 0.904,1.436 0.249,1.123 0.198,1.85 0.362,2.572 0.731,3.205 1.103,3.84 1.647,4.338 2.302,4.65 m -3.48,1.608 C -1.313,6.98 -1.231,7.717 -0.945,8.383 -0.433,7.871 -0.083,7.217 0.056,6.496 0.195,5.777 0.113,5.041 -0.176,4.373 -0.689,4.887 -1.039,5.541 -1.178,6.258 M -2.636,0.746 c -0.093,0.729 0.033,1.459 0.36,2.108 0.48,-0.543 0.79,-1.215 0.885,-1.944 0.097,-0.724 -0.03,-1.455 -0.356,-2.101 -0.482,0.541 -0.793,1.214 -0.889,1.937 m 2.634,-4.234 c -0.49,-0.543 -1.128,-0.918 -1.833,-1.088 0.1,0.721 0.411,1.394 0.901,1.933 0.496,0.545 1.133,0.924 1.835,1.09 C 0.802,-2.271 0.49,-2.947 -0.002,-3.488" /></g><g
           transform="translate(95.8892,118.1421)"
           id="g82"><path
             id="path84"
             style="fill:#bf5700;fill-opacity:1;fill-rule:nonzero;stroke:none"
             d="m 0,0 -0.843,0.105 c -0.112,0.014 -11.344,1.413 -20.092,1.413 l -0.005,0 -0.007,0 c -8.747,0 -19.979,-1.399 -20.09,-1.413 L -41.881,0 l 0,-15.541 -0.008,0 0,-2.168 c 0,-6.547 0.649,-15.008 5.707,-22.416 1.042,-1.525 2.227,-2.934 3.646,-4.303 l -10e-4,-0.002 c 0.01,-0.008 0.018,-0.015 0.028,-0.023 2.744,-2.641 6.371,-5.131 11.559,-8.022 l 0,-0.007 c 0.002,0.003 0.003,0.003 0.005,0.003 0.002,0 0.003,0 0.005,-0.003 l 0,0.007 c 5.187,2.891 8.814,5.381 11.558,8.022 0.01,0.008 0.019,0.015 0.028,0.023 l 0,0.002 c 1.418,1.369 2.602,2.778 3.646,4.303 5.058,7.408 5.707,15.869 5.707,22.416 l 0,0.309 L 0,-17.4 0,0 Z m -38.948,-1.611 c 3.535,0.392 11.483,1.183 18.008,1.183 6.523,0 14.471,-0.791 18.006,-1.183 l 0.99,-13.93 -18.996,0 -18.998,0 0.99,13.93 z m 31.649,-37.426 c -0.981,-1.436 -2.104,-2.768 -3.459,-4.065 -4.176,-3.836 -8.866,-5.955 -10.187,-6.505 -1.322,0.55 -6.011,2.669 -10.189,6.505 -1.353,1.297 -2.476,2.629 -3.458,4.065 -4.744,6.947 -5.367,15.002 -5.371,21.262 l 0.006,0 19.017,1.056 19.012,-1.054 c -0.005,-6.26 -0.627,-14.317 -5.371,-21.264" /></g><g
           transform="translate(107.2661,116.4448)"
           id="g86"><path
             id="path88"
             style="fill:#bf5700;fill-opacity:1;fill-rule:nonzero;stroke:none"
             d="m 0,0 0,-10.973 2.417,0 2.853,7.873 9.298,0.125 0,-37.57 -7.439,-0.807 0.31,-2.169 10.415,0.185 10.043,-0.185 0.31,2.169 -7.129,0.807 0,37.57 9.299,-0.125 2.852,-7.873 2.418,0 L 35.647,0 17.793,-0.186 0,0 Z" /></g><g
           transform="translate(175.4634,76.0229)"
           id="g90"><path
             id="path92"
             style="fill:#bf5700;fill-opacity:1;fill-rule:nonzero;stroke:none"
             d="m 0,0 -17.049,-0.186 0,18.6 8.68,-0.248 2.48,-6.51 2.17,0 -0.621,8.369 0.621,7.75 -2.17,0 -2.48,-6.509 -8.68,-0.248 0,16.492 16.43,-0.188 3.471,-8.058 2.109,0 -0.621,11.158 -24.612,-0.186 -8.556,0.186 -0.311,-2.17 5.58,-0.805 0,-37.57 -5.58,-0.807 0.311,-2.17 8.556,0.186 L 4.34,-3.1 6.51,8.371 4.154,8.371 0,0 Z" /></g><g
           transform="translate(237.8364,90.4077)"
           id="g94"><path
             id="path96"
             style="fill:#bf5700;fill-opacity:1;fill-rule:nonzero;stroke:none"
             d="M 0,0 6.43,18.59 13.205,0 0,0 Z m 9.609,26.596 -3.72,-1.055 -15.375,-40.174 -2.987,-0.402 -2.966,0.465 -13.764,20.273 12.709,17.483 4.836,0.681 -0.309,2.17 -7.254,-0.185 -7.254,0.185 -0.31,-2.17 5.394,-0.805 -9.841,-14.462 -8.758,14.525 5.269,0.805 -0.308,2.17 -8.805,-0.248 -8.866,0.248 -0.311,-2.17 4.837,-0.682 12.834,-19.404 -13.39,-18.414 -4.837,-0.682 0.31,-2.232 6.944,0.185 7.252,-0.185 0.311,2.232 -5.084,0.744 10.568,15.461 9.643,-15.4 -5.27,-0.805 0.311,-2.232 8.865,0.185 7.244,-0.152 5.094,0.152 7.44,-0.185 0.31,2.17 -5.394,0.806 4.031,11.594 15.312,0 4.217,-11.594 -5.271,-0.806 0.31,-2.17 8.184,0.185 8.556,-0.185 0.309,2.17 -4.836,0.681 -16.18,41.229 z" /></g><g
           transform="translate(289.481,97.2886)"
           id="g98"><path
             id="path100"
             style="fill:#bf5700;fill-opacity:1;fill-rule:nonzero;stroke:none"
             d="m 0,0 -7.131,3.1 c -3.408,1.488 -5.826,3.595 -5.826,7.005 0,4.155 2.914,6.821 7.811,6.821 3.72,0 5.705,-1.365 7.316,-3.039 l 1.797,-5.641 3.099,0 0,8.369 c -3.099,2.293 -7.439,3.596 -11.343,3.596 -8.619,-1.799 -14.819,-5.766 -14.819,-12.524 0,-5.517 3.658,-8.369 8.121,-10.291 l 7.502,-3.285 c 3.721,-1.613 6.448,-4.031 6.448,-8.246 0,-4.527 -3.1,-7.875 -8.43,-7.875 -3.473,0 -6.883,1.614 -8.742,3.906 l -2.17,5.27 -4.34,0 1.363,-8.369 c 3.287,-2.604 7.131,-4.215 12.834,-4.215 11.655,2.416 15.623,8.059 15.623,13.887 C 9.176,-5.207 4.896,-2.107 0,0" /></g><g
           transform="translate(126.5654,54.2344)"
           id="g102"><path
             id="path104"
             style="fill:#bf5700;fill-opacity:1;fill-rule:nonzero;stroke:none"
             d="m 0,0 -1.241,-0.04 -0.066,0.462 0.647,0.132 0,3.775 c 0,0.687 -0.317,0.99 -0.844,0.99 -0.396,0 -0.911,-0.29 -1.4,-0.594 l -0.395,-0.25 0,-3.921 L -2.574,0.422 -2.64,-0.04 -3.894,0 l -1.385,-0.04 -0.066,0.462 0.792,0.132 0,8.078 -0.476,-0.079 -2.679,0.039 0,-7.998 L -6.19,0.422 -6.256,-0.04 -8.395,0 l -2.217,-0.04 -0.066,0.462 1.584,0.172 0,7.998 -1.98,-0.039 -0.607,-1.65 -0.515,0 0,2.336 3.788,-0.026 3.247,0.026 1.412,0.158 0.45,0 0,-4.276 1.926,1.254 c 1.69,0 1.967,-0.633 1.967,-2.31 l 0,-3.511 L 1.584,0.422 1.518,-0.04 0,0 Z" /></g><g
           transform="translate(132.6514,58.2339)"
           id="g106"><path
             id="path108"
             style="fill:#bf5700;fill-opacity:1;fill-rule:nonzero;stroke:none"
             d="m 0,0 c 0,1.016 -0.198,1.716 -1.214,1.716 -0.805,0 -1.32,-0.753 -1.426,-1.848 L 0,0 Z m -2.653,-0.66 c 0,-1.505 0.805,-2.574 2.191,-2.574 0.528,0 1.162,0.251 1.65,0.554 l 0.211,-0.501 c -0.633,-0.436 -1.465,-0.805 -2.31,-1.043 -1.597,0 -3.035,1.135 -3.035,3.207 0,1.954 1.175,2.996 2.983,3.392 1.742,0 2.336,-1.095 2.336,-2.481 l 0,-0.554 -4.026,0 z" /></g><g
           transform="translate(143.0132,62.9985)"
           id="g110"><path
             id="path112"
             style="fill:#bf5700;fill-opacity:1;fill-rule:nonzero;stroke:none"
             d="M 0,0 0.066,0.462 1.755,0.422 3.3,0.462 3.366,0 2.244,-0.172 l 0,-5.385 c 0,-1.715 -0.7,-2.864 -3.326,-3.471 -2.601,0 -3.524,1.399 -3.524,3.498 l 0,5.358 -1.188,0.172 0.066,0.462 1.821,-0.04 1.808,0.04 0.066,-0.462 -1.121,-0.172 0,-5.557 c 0,-1.636 0.699,-2.573 2.204,-2.573 1.372,0 2.138,0.924 2.138,2.613 l 0,5.517 L 0,0 Z" /></g><g
           transform="translate(148.1616,54.2344)"
           id="g114"><path
             id="path116"
             style="fill:#bf5700;fill-opacity:1;fill-rule:nonzero;stroke:none"
             d="m 0,0 -1.518,-0.04 -0.066,0.462 0.924,0.132 0,4.818 -0.924,-0.079 -0.066,0.462 1.584,0.409 0.567,0.04 0.066,-1.109 1.954,1.28 c 1.689,0 1.966,-0.567 1.966,-2.151 l 0,-3.67 L 5.491,0.422 5.425,-0.04 3.907,0 2.64,-0.04 2.574,0.422 l 0.66,0.132 0,3.775 c 0,0.687 -0.304,0.99 -0.872,0.99 C 1.9,5.319 1.438,5.029 0.99,4.725 L 0.594,4.461 0.594,0.554 1.32,0.422 1.254,-0.04 0,0 Z" /></g><g
           transform="translate(155.0649,63.3154)"
           id="g118"><path
             id="path120"
             style="fill:#bf5700;fill-opacity:1;fill-rule:nonzero;stroke:none"
             d="M 0,0 0.951,0.066 1.32,0 1.386,-0.739 1.241,-1.373 0.304,-1.452 -0.053,-1.373 -0.132,-0.634 0,0 Z m 0.66,-9.081 -1.518,-0.04 -0.066,0.462 0.924,0.132 0,4.818 -0.924,-0.079 -0.066,0.462 1.584,0.409 0.66,0.053 0,-5.663 0.99,-0.132 -0.066,-0.462 -1.518,0.04 z" /></g><g
           transform="translate(161.0181,55.0527)"
           id="g122"><path
             id="path124"
             style="fill:#bf5700;fill-opacity:1;fill-rule:nonzero;stroke:none"
             d="M 0,0 1.597,4.778 0.99,4.91 1.056,5.372 2.217,5.333 3.313,5.372 3.379,4.91 2.534,4.778 0.37,-0.647 -0.594,-1.042 -2.891,4.778 -3.709,4.91 -3.643,5.372 -2.125,5.333 -0.739,5.372 -0.673,4.91 -1.544,4.778 -0.105,0.911 0,0 Z" /></g><g
           transform="translate(168.3437,58.2339)"
           id="g126"><path
             id="path128"
             style="fill:#bf5700;fill-opacity:1;fill-rule:nonzero;stroke:none"
             d="m 0,0 c 0,1.016 -0.198,1.716 -1.214,1.716 -0.805,0 -1.32,-0.753 -1.426,-1.848 L 0,0 Z m -2.653,-0.66 c 0,-1.505 0.805,-2.574 2.191,-2.574 0.528,0 1.162,0.251 1.65,0.554 l 0.211,-0.501 c -0.633,-0.436 -1.465,-0.805 -2.31,-1.043 -1.597,0 -3.035,1.135 -3.035,3.207 0,1.954 1.175,2.996 2.983,3.392 1.742,0 2.336,-1.095 2.336,-2.481 l 0,-0.554 -4.026,0 z" /></g><g
           transform="translate(172.6738,58.6958)"
           id="g130"><path
             id="path132"
             style="fill:#bf5700;fill-opacity:1;fill-rule:nonzero;stroke:none"
             d="m 0,0 1.505,1.848 1.056,0 0,-1.32 -0.977,0 C 1.267,0.462 0.687,0.026 0.33,-0.409 l -0.264,-0.317 0,-3.142 L 1.452,-4 1.386,-4.501 l -1.914,0.04 -1.478,-0.04 -0.066,0.462 0.924,0.132 0,4.818 -0.924,-0.079 -0.066,0.461 1.584,0.41 0.528,0.039 L 0,0 Z" /></g><g
           transform="translate(179.3921,59.6724)"
           id="g134"><path
             id="path136"
             style="fill:#bf5700;fill-opacity:1;fill-rule:nonzero;stroke:none"
             d="m 0,0 c -0.132,0.079 -0.528,0.291 -1.003,0.291 -0.515,0 -1.003,-0.278 -1.003,-0.779 0,-0.423 0.33,-0.687 0.924,-0.991 l 1.016,-0.514 c 0.884,-0.449 1.241,-0.95 1.241,-1.703 0,-1.188 -0.964,-1.637 -2.482,-1.966 -0.805,0 -1.663,0.395 -2.006,0.594 l -0.25,1.491 0.844,0 0.449,-1.095 c 0.277,-0.185 0.66,-0.33 1.083,-0.33 0.699,0 1.055,0.448 1.055,1.002 0,0.516 -0.277,0.74 -0.963,1.096 l -1.043,0.541 c -0.568,0.291 -1.109,0.792 -1.109,1.531 0,0.924 0.858,1.439 2.389,1.769 0.713,0 1.479,-0.317 1.861,-0.594 l 0,-1.32 -0.699,0 L 0,0 Z" /></g><g
           transform="translate(182.3755,63.3154)"
           id="g138"><path
             id="path140"
             style="fill:#bf5700;fill-opacity:1;fill-rule:nonzero;stroke:none"
             d="M 0,0 0.951,0.066 1.32,0 1.386,-0.739 1.241,-1.373 0.304,-1.452 -0.053,-1.373 -0.132,-0.634 0,0 Z m 0.66,-9.081 -1.518,-0.04 -0.066,0.462 0.924,0.132 0,4.818 -0.924,-0.079 -0.066,0.462 1.584,0.409 0.66,0.053 0,-5.663 0.99,-0.132 -0.066,-0.462 -1.518,0.04 z" /></g><g
           transform="translate(189.583,51.1064)"
           id="g142"><path
             id="path144"
             style="fill:#bf5700;fill-opacity:1;fill-rule:nonzero;stroke:none"
             d="m 0,0 0,1.32 1.135,0 1.306,1.993 -0.527,-0.159 -2.218,5.557 -1.993,0 0,-4.025 c 0,-0.383 0.146,-0.792 0.7,-0.792 0.383,0 0.792,0.184 1.161,0.369 l 0.225,-0.449 -1.664,-0.91 c -1.478,0 -1.676,0.528 -1.676,1.716 l 0,3.933 -1.28,0 0,0.224 0.462,0.462 0.858,0 0,0.858 0.858,0.858 0.343,0 0,-1.65 4.158,0 L 1.914,8.856 1.042,8.724 2.508,4.857 2.613,3.946 4.25,8.724 3.643,8.856 3.708,9.318 4.87,9.279 5.966,9.318 6.032,8.856 5.187,8.724 3.049,3.326 1.57,0 0,0 Z" /></g><g
           transform="translate(201.397,54.6567)"
           id="g146"><path
             id="path148"
             style="fill:#bf5700;fill-opacity:1;fill-rule:nonzero;stroke:none"
             d="m 0,0 c 1.056,0 1.597,1.083 1.597,2.508 0,1.676 -0.805,2.798 -1.953,2.798 -1.07,0 -1.598,-1.082 -1.598,-2.521 C -1.954,1.28 -1.175,0 0,0 m 2.917,2.785 c 0,-1.967 -1.201,-3.102 -3.247,-3.431 -1.755,0 -2.943,1.359 -2.943,3.154 0,1.98 1.201,3.101 3.247,3.445 1.755,0 2.943,-1.373 2.943,-3.168" /></g><g
           transform="translate(207.2842,60.2793)"
           id="g150"><path
             id="path152"
             style="fill:#bf5700;fill-opacity:1;fill-rule:nonzero;stroke:none"
             d="m 0,0 1.649,0 0,-0.62 -1.649,0 0,-4.871 1.518,-0.092 -0.066,-0.501 -2.046,0.039 -1.518,-0.039 -0.066,0.461 0.924,0.132 0,4.871 -1.162,0 0,0.224 0.396,0.462 0.766,0 0,0.132 c 0,0.792 0.251,1.307 0.726,1.848 l 1.109,1.254 1.663,0 0,-1.056 -1.716,0 L 0.277,1.888 C 0.092,1.637 0,1.254 0,0.396 L 0,0 Z" /></g><g
           transform="translate(219.0322,54.1948)"
           id="g154"><path
             id="path156"
             style="fill:#bf5700;fill-opacity:1;fill-rule:nonzero;stroke:none"
             d="M 0,0 -2.139,0.04 -4.356,0 l -0.066,0.462 1.584,0.171 0,7.999 -1.98,-0.027 -0.607,-1.676 -0.515,0 0,2.337 3.788,-0.04 3.801,0.04 0,-2.337 -0.514,0 -0.607,1.676 -1.98,0.027 0,-7.999 L 0.066,0.462 0,0 Z" /></g><g
           transform="translate(224.0342,58.2339)"
           id="g158"><path
             id="path160"
             style="fill:#bf5700;fill-opacity:1;fill-rule:nonzero;stroke:none"
             d="m 0,0 c 0,1.016 -0.198,1.716 -1.214,1.716 -0.805,0 -1.32,-0.753 -1.426,-1.848 L 0,0 Z m -2.653,-0.66 c 0,-1.505 0.805,-2.574 2.191,-2.574 0.528,0 1.162,0.251 1.65,0.554 l 0.211,-0.501 c -0.633,-0.436 -1.465,-0.805 -2.31,-1.043 -1.597,0 -3.035,1.135 -3.035,3.207 0,1.954 1.175,2.996 2.983,3.392 1.742,0 2.336,-1.095 2.336,-2.481 l 0,-0.554 -4.026,0 z" /></g><g
           transform="translate(228.417,54.6567)"
           id="g162"><path
             id="path164"
             style="fill:#bf5700;fill-opacity:1;fill-rule:nonzero;stroke:none"
             d="m 0,0 -0.066,-0.462 -1.029,0.04 -1.36,-0.04 L -2.521,0 -1.597,0.132 0.356,2.534 -1.557,5.161 -2.375,5.293 -2.31,5.768 -0.792,5.729 0.462,5.768 0.528,5.293 0.013,5.161 0.99,3.696 1.096,3.353 2.35,5.161 1.703,5.293 1.769,5.768 2.798,5.729 4.158,5.768 4.224,5.293 3.273,5.161 1.531,3.049 3.604,0.132 4.422,0 4.356,-0.462 2.838,-0.422 1.584,-0.462 1.518,0 2.059,0.132 0.884,1.834 0.779,2.138 -0.62,0.132 0,0 Z" /></g><g
           transform="translate(236.7329,57.376)"
           id="g166"><path
             id="path168"
             style="fill:#bf5700;fill-opacity:1;fill-rule:nonzero;stroke:none"
             d="m 0,0 -1.914,-0.792 c -0.198,-0.198 -0.264,-0.462 -0.264,-0.739 0,-0.674 0.383,-0.911 0.766,-0.911 0.37,0 0.686,0.224 0.858,0.343 L 0,-1.716 0,0 Z m -0.832,3.233 c 1.664,0 2.086,-0.422 2.086,-2.098 l 0,-2.587 c 0,-0.568 0.092,-0.779 0.225,-0.99 l 0.659,0 0.053,-0.462 -1.703,-0.33 -0.409,1.016 -1.57,-1.148 c -1.135,0 -1.941,0.634 -1.941,1.69 0,0.475 0.172,0.818 0.462,1.214 L 0,0.528 0,1.187 c 0,0.792 -0.066,1.268 -0.779,1.268 -0.356,0 -0.792,-0.119 -1.082,-0.238 l -0.224,-1.043 -1.136,0 0,1.004 2.389,1.055 z" /></g><g
           transform="translate(243.0156,59.6724)"
           id="g170"><path
             id="path172"
             style="fill:#bf5700;fill-opacity:1;fill-rule:nonzero;stroke:none"
             d="m 0,0 c -0.132,0.079 -0.528,0.291 -1.003,0.291 -0.515,0 -1.003,-0.278 -1.003,-0.779 0,-0.423 0.33,-0.687 0.924,-0.991 l 1.016,-0.514 c 0.884,-0.449 1.241,-0.95 1.241,-1.703 0,-1.188 -0.964,-1.637 -2.482,-1.966 -0.805,0 -1.663,0.395 -2.006,0.594 l -0.25,1.491 0.844,0 0.449,-1.095 c 0.277,-0.185 0.66,-0.33 1.083,-0.33 0.699,0 1.055,0.448 1.055,1.002 0,0.516 -0.277,0.74 -0.963,1.096 l -1.043,0.541 c -0.568,0.291 -1.109,0.792 -1.109,1.531 0,0.924 0.858,1.439 2.389,1.769 0.713,0 1.479,-0.317 1.861,-0.594 l 0,-1.32 -0.699,0 L 0,0 Z" /></g><g
           transform="translate(251.6743,57.376)"
           id="g174"><path
             id="path176"
             style="fill:#bf5700;fill-opacity:1;fill-rule:nonzero;stroke:none"
             d="m 0,0 -1.914,-0.792 c -0.198,-0.198 -0.264,-0.462 -0.264,-0.739 0,-0.674 0.383,-0.911 0.766,-0.911 0.37,0 0.686,0.224 0.858,0.343 L 0,-1.716 0,0 Z m -0.832,3.233 c 1.664,0 2.086,-0.422 2.086,-2.098 l 0,-2.587 c 0,-0.568 0.092,-0.779 0.224,-0.99 l 0.66,0 0.053,-0.462 -1.703,-0.33 -0.409,1.016 -1.57,-1.148 c -1.135,0 -1.941,0.634 -1.941,1.69 0,0.475 0.172,0.818 0.462,1.214 L 0,0.528 0,1.187 c 0,0.792 -0.066,1.268 -0.779,1.268 -0.356,0 -0.792,-0.119 -1.082,-0.238 l -0.224,-1.043 -1.136,0 0,1.004 2.389,1.055 z" /></g><g
           transform="translate(253.8008,59.6592)"
           id="g178"><path
             id="path180"
             style="fill:#bf5700;fill-opacity:1;fill-rule:nonzero;stroke:none"
             d="m 0,0 0,0.224 0.462,0.463 0.857,0 0,0.857 0.859,0.858 0.343,0 0,-1.808 1.993,0 0,-0.594 -1.98,0 0,-3.867 c 0,-0.383 0.145,-0.792 0.699,-0.792 0.383,0 0.673,0.132 1.043,0.317 L 4.5,-4.791 2.956,-5.649 c -1.478,0 -1.676,0.528 -1.676,1.716 L 1.28,0 0,0 Z" /></g><g
           transform="translate(265.6406,61.4014)"
           id="g182"><path
             id="path184"
             style="fill:#bf5700;fill-opacity:1;fill-rule:nonzero;stroke:none"
             d="m 0,0 -0.093,0.713 -1.452,-4.197 2.812,0 L 0,0 Z m -1.756,-4.105 -0.857,-2.468 1.147,-0.172 -0.065,-0.462 -1.584,0.04 -1.412,-0.04 -0.067,0.462 1.03,0.145 3.273,8.554 0.792,0.224 3.445,-8.778 1.03,-0.145 -0.067,-0.462 -1.821,0.04 -1.742,-0.04 -0.066,0.462 1.121,0.172 -0.897,2.468 -3.26,0 z" /></g><g
           transform="translate(276.2266,55.9238)"
           id="g186"><path
             id="path188"
             style="fill:#bf5700;fill-opacity:1;fill-rule:nonzero;stroke:none"
             d="m 0,0 c 0,-0.567 0.066,-0.779 0.158,-0.99 l 0.66,0 0.053,-0.462 -1.703,-0.33 -0.369,1.069 -1.914,-1.201 c -1.742,0 -2.032,0.621 -2.032,2.152 l 0,3.445 -0.924,-0.066 -0.067,0.514 1.584,0.344 0.66,0.052 0,-4.395 c 0,-0.686 0.29,-0.99 0.937,-0.99 0.409,0 0.937,0.33 1.439,0.66 l 0.264,0.172 0,3.709 L -2.046,3.617 -2.112,4.131 -0.66,4.475 0,4.527 0,0 Z" /></g><g
           transform="translate(281.2559,59.6724)"
           id="g190"><path
             id="path192"
             style="fill:#bf5700;fill-opacity:1;fill-rule:nonzero;stroke:none"
             d="m 0,0 c -0.132,0.079 -0.528,0.291 -1.004,0.291 -0.515,0 -1.003,-0.278 -1.003,-0.779 0,-0.423 0.33,-0.687 0.924,-0.991 l 1.017,-0.514 c 0.884,-0.449 1.241,-0.95 1.241,-1.703 0,-1.188 -0.964,-1.637 -2.482,-1.966 -0.805,0 -1.663,0.395 -2.006,0.594 l -0.251,1.491 0.844,0 0.449,-1.095 c 0.278,-0.185 0.661,-0.33 1.083,-0.33 0.7,0 1.056,0.448 1.056,1.002 0,0.516 -0.277,0.74 -0.964,1.096 l -1.043,0.541 c -0.567,0.291 -1.108,0.792 -1.108,1.531 0,0.924 0.857,1.439 2.389,1.769 0.712,0 1.478,-0.317 1.861,-0.594 l 0,-1.32 -0.699,0 L 0,0 Z" /></g><g
           transform="translate(282.8535,59.6592)"
           id="g194"><path
             id="path196"
             style="fill:#bf5700;fill-opacity:1;fill-rule:nonzero;stroke:none"
             d="m 0,0 0,0.224 0.462,0.463 0.857,0 0,0.857 0.859,0.858 0.343,0 0,-1.808 1.993,0 0,-0.594 -1.98,0 0,-3.867 c 0,-0.383 0.145,-0.792 0.699,-0.792 0.383,0 0.673,0.132 1.043,0.317 L 4.5,-4.791 2.956,-5.649 c -1.478,0 -1.676,0.528 -1.676,1.716 L 1.28,0 0,0 Z" /></g><g
           transform="translate(289.0439,63.3154)"
           id="g198"><path
             id="path200"
             style="fill:#bf5700;fill-opacity:1;fill-rule:nonzero;stroke:none"
             d="M 0,0 0.95,0.066 1.32,0 1.386,-0.739 1.241,-1.373 0.304,-1.452 -0.053,-1.373 -0.132,-0.634 0,0 Z m 0.66,-9.081 -1.517,-0.04 -0.067,0.462 0.924,0.132 0,4.818 -0.924,-0.079 -0.066,0.462 1.584,0.409 0.66,0.053 0,-5.663 0.99,-0.132 -0.066,-0.462 -1.518,0.04 z" /></g><g
           transform="translate(293.4658,54.2344)"
           id="g202"><path
             id="path204"
             style="fill:#bf5700;fill-opacity:1;fill-rule:nonzero;stroke:none"
             d="m 0,0 -1.518,-0.04 -0.066,0.462 0.924,0.132 0,4.818 -0.924,-0.079 -0.066,0.462 1.584,0.409 0.568,0.04 0.065,-1.109 1.954,1.28 c 1.689,0 1.966,-0.567 1.966,-2.151 l 0,-3.67 L 5.49,0.422 5.425,-0.04 3.907,0 2.64,-0.04 2.573,0.422 l 0.66,0.132 0,3.775 c 0,0.687 -0.303,0.99 -0.871,0.99 C 1.9,5.319 1.438,5.029 0.99,4.725 L 0.594,4.461 0.594,0.554 1.319,0.422 1.254,-0.04 0,0 Z" /></g></g></g></g></svg>