<?xml version="1.0" encoding="UTF-8" standalone="no"?>
<svg
   xmlns:dc="http://purl.org/dc/elements/1.1/"
   xmlns:cc="http://creativecommons.org/ns#"
   xmlns:rdf="http://www.w3.org/1999/02/22-rdf-syntax-ns#"
   xmlns:svg="http://www.w3.org/2000/svg"
   xmlns="http://www.w3.org/2000/svg"
   viewBox="0 0 435.3255 456.02846"
   height="5.0669827in"
   width="4.8369503in"
   xml:space="preserve"
   version="1.1"
   id="svg2"><metadata
     id="metadata8"><rdf:RDF><cc:Work
         rdf:about=""><dc:format>image/svg+xml</dc:format><dc:type
           rdf:resource="http://purl.org/dc/dcmitype/StillImage" /><dc:title></dc:title></cc:Work></rdf:RDF></metadata><defs
     id="defs6"><clipPath
       id="clipPath18"
       clipPathUnits="userSpaceOnUse"><path
         style="clip-rule:evenodd"
         id="path20"
         d="m 2500.449,956.7068 c 0,136.3208 110.5067,246.8275 246.8275,246.8275 136.3208,0 246.8275,-110.5067 246.8275,-246.8275 0,-136.3208 -110.5067,-246.8275 -246.8275,-246.8275 -136.3208,0 -246.8275,110.5067 -246.8275,246.8275 z" /></clipPath><clipPath
       id="clipPath26"
       clipPathUnits="userSpaceOnUse"><path
         style="clip-rule:evenodd"
         id="path28"
         d="m 2500.449,956.7068 c 0,136.3208 110.5067,246.8275 246.8275,246.8275 136.3208,0 246.8275,-110.5067 246.8275,-246.8275 0,-136.3208 -110.5067,-246.8275 -246.8275,-246.8275 -136.3208,0 -246.8275,110.5067 -246.8275,246.8275 z" /></clipPath><clipPath
       id="clipPath216"
       clipPathUnits="userSpaceOnUse"><path
         style="clip-rule:evenodd"
         id="path218"
         d="m 2563.0353,955.9396 c 0,101.3312 82.1428,183.4741 183.474,183.4741 101.3312,0 183.4741,-82.1429 183.4741,-183.4741 0,-101.3312 -82.1429,-183.474 -183.4741,-183.474 -101.3312,0 -183.474,82.1428 -183.474,183.474 z" /></clipPath><clipPath
       id="clipPath224"
       clipPathUnits="userSpaceOnUse"><path
         style="clip-rule:evenodd"
         id="path226"
         d="m 2563.0353,955.9396 c 0,101.3312 82.1428,183.4741 183.474,183.4741 101.3312,0 183.4741,-82.1429 183.4741,-183.4741 0,-101.3312 -82.1429,-183.474 -183.4741,-183.474 -101.3312,0 -183.474,82.1428 -183.474,183.474 z" /></clipPath></defs><g
     transform="matrix(1.25,0,0,-1.25,-154.88684,792.93859)"
     id="g10"><path
       d="m 298.3769,570.8287 0.017,56.1713 27.585,-89.1049 -8.471,-26.0397 -19.1308,58.9733 z"
       style="fill:#fff533;fill-opacity:1;fill-rule:evenodd;stroke:#8d8d8d;stroke-opacity:1"
       id="path742" /><path
       d="m 298.3817,570.8287 0.012,56.1713 -28.2317,-89.2009 9.002,-26.3538 19.2177,59.3834 z"
       style="fill:#fff533;fill-opacity:1;fill-rule:evenodd;stroke:#8d8d8d;stroke-opacity:1"
       id="path744" /><path
       d="m 228.4229,548.3258 -33.005,45.4281 74.7189,-55.9316 8.9981,-26.3305 -50.712,36.834 z"
       style="fill:#fff533;fill-opacity:1;fill-rule:evenodd;stroke:#8d8d8d;stroke-opacity:1"
       id="path746" /><path
       d="m 228.452,548.3054 -33.0341,45.4485 29.6185,-88.7586 22.6842,-16.3443 -19.2686,59.6544 z"
       style="fill:#fff533;fill-opacity:1;fill-rule:evenodd;stroke:#8d8d8d;stroke-opacity:1"
       id="path748" /><path
       d="m 185.6233,488.5723 -54.0023,17.7933 93.4154,-1.3703 22.6842,-16.3443 -62.0973,-0.0787 z"
       style="fill:#fff533;fill-opacity:1;fill-rule:evenodd;stroke:#8d8d8d;stroke-opacity:1"
       id="path750" /><path
       d="m 185.2016,488.6876 -53.6811,17.6789 76.1939,-54.099 27.7465,0.002 -50.2593,36.4181 z"
       style="fill:#fff533;fill-opacity:1;fill-rule:evenodd;stroke:#8d8d8d;stroke-opacity:1"
       id="path752" /><path
       d="m 185.3555,415.769 -53.9568,-17.6275 76.3157,54.126 27.7465,0.002 -50.1054,-36.5005 z"
       style="fill:#fff533;fill-opacity:1;fill-rule:evenodd;stroke:#8d8d8d;stroke-opacity:1"
       id="path754" /><path
       d="m 185.0195,415.6367 -53.6208,-17.4952 93.6744,0.7527 22.9112,16.7737 -62.9648,-0.0312 z"
       style="fill:#fff533;fill-opacity:1;fill-rule:evenodd;stroke:#8d8d8d;stroke-opacity:1"
       id="path756" /><path
       d="m 228.479,355.7508 -33.1218,-45.5799 29.7159,88.7233 22.9112,16.7737 -19.5053,-59.9171 z"
       style="fill:#fff533;fill-opacity:1;fill-rule:evenodd;stroke:#8d8d8d;stroke-opacity:1"
       id="path758" /><path
       d="m 228.479,355.7508 -33.1218,-45.5799 74.776,55.4433 8.8561,26.9402 -50.5103,-36.8036 z"
       style="fill:#fff533;fill-opacity:1;fill-rule:evenodd;stroke:#8d8d8d;stroke-opacity:1"
       id="path760" /><path
       d="m 298.0951,333.4723 0,-56.5939 -27.9619,88.7358 8.8238,26.8506 19.1381,-58.9925 z"
       style="fill:#fff533;fill-opacity:1;fill-rule:evenodd;stroke:#8d8d8d;stroke-opacity:1"
       id="path762" /><path
       d="m 298.0951,333.4723 0,-56.5849 27.9298,89.1174 -8.7997,27.1321 -19.1301,-59.6646 z"
       style="fill:#fff533;fill-opacity:1;fill-rule:evenodd;stroke:#8d8d8d;stroke-opacity:1"
       id="path764" /><path
       d="m 368.246,355.7812 32.7735,-45.4441 -74.9946,55.6677 -8.7997,27.1321 51.0208,-37.3557 z"
       style="fill:#fff533;fill-opacity:1;fill-rule:evenodd;stroke:#8d8d8d;stroke-opacity:1"
       id="path766" /><path
       d="m 368.246,355.7812 32.7735,-45.4441 -29.8531,88.5484 -22.3969,16.7785 19.4765,-59.8828 z"
       style="fill:#fff533;fill-opacity:1;fill-rule:evenodd;stroke:#8d8d8d;stroke-opacity:1"
       id="path768" /><path
       d="m 411.1562,415.6445 53.3363,-18.1486 -93.3261,1.3896 -22.3969,16.7785 62.3867,-0.0195 z"
       style="fill:#fff533;fill-opacity:1;fill-rule:evenodd;stroke:#8d8d8d;stroke-opacity:1"
       id="path770" /><path
       d="m 411.1562,415.6445 53.3363,-18.1486 -76.0626,54.5766 -27.5544,0 50.2807,-36.428 z"
       style="fill:#fff533;fill-opacity:1;fill-rule:evenodd;stroke:#8d8d8d;stroke-opacity:1"
       id="path772" /><path
       d="m 411.4062,488.6757 53.2758,17.0898 -76.2521,-53.693 -27.5544,0 50.5307,36.6032 z"
       style="fill:#fff533;fill-opacity:1;fill-rule:evenodd;stroke:#8d8d8d;stroke-opacity:1"
       id="path774" /><path
       d="m 411.4062,488.6757 53.2758,17.0898 -93.5185,-0.6949 -22.6675,-16.4027 62.9102,0.008 z"
       style="fill:#fff533;fill-opacity:1;fill-rule:evenodd;stroke:#8d8d8d;stroke-opacity:1"
       id="path776" /><path
       d="m 367.9633,548.5358 33.2515,44.8587 -30.0513,-88.3239 -22.6675,-16.4027 19.4673,59.8679 z"
       style="fill:#fff533;fill-opacity:1;fill-rule:evenodd;stroke:#8d8d8d;stroke-opacity:1"
       id="path778" /><path
       d="m 367.9633,548.5358 33.2515,44.8587 -75.2361,-55.4994 -8.471,-26.0397 50.4556,36.6804 z"
       style="fill:#fff533;fill-opacity:1;fill-rule:evenodd;stroke:#8d8d8d;stroke-opacity:1"
       id="path780" /><path
       d="m 332.4296,517.0859 3.7707,-12.24 -11.1613,-16.1975 -6.1622,16.1571 13.5528,12.2804 z"
       style="fill:#fff533;fill-opacity:1;fill-rule:evenodd;stroke:#8d8d8d;stroke-opacity:1"
       id="path782" /><path
       d="m 348.8827,504.914 -12.6601,-0.09 -11.1836,-16.1758 17.6172,-0.3984 6.2265,16.664 z"
       style="fill:#fff533;fill-opacity:1;fill-rule:evenodd;stroke:#8d8d8d;stroke-opacity:1"
       id="path784" /><path
       d="m 287.5756,524.8449 10.4868,-7.6887 0.036,-19.401 -14.2691,9.1884 3.7463,17.9013 z"
       style="fill:#fff533;fill-opacity:1;fill-rule:evenodd;stroke:#8d8d8d;stroke-opacity:1"
       id="path786" /><path
       d="m 308.0409,524.6684 -9.9785,-7.5122 0.036,-19.401 14.6999,9.7718 -4.7574,17.1414 z"
       style="fill:#fff533;fill-opacity:1;fill-rule:evenodd;stroke:#8d8d8d;stroke-opacity:1"
       id="path788" /><path
       d="m 246.7271,504.7575 12.8199,-0.189 12.1564,-15.9067 -17.4851,-0.5887 -7.4912,16.6844 z"
       style="fill:#fff533;fill-opacity:1;fill-rule:evenodd;stroke:#8d8d8d;stroke-opacity:1"
       id="path790" /><path
       d="m 263.3877,516.644 -3.8407,-12.0755 12.1564,-15.9067 6.0465,17.4632 -14.3622,10.519 z"
       style="fill:#fff533;fill-opacity:1;fill-rule:evenodd;stroke:#8d8d8d;stroke-opacity:1"
       id="path792" /><path
       d="m 225.4868,464.4964 10.4827,7.3824 18.9897,-5.4736 -13.605,-11.0037 -15.8674,9.0949 z"
       style="fill:#fff533;fill-opacity:1;fill-rule:evenodd;stroke:#8d8d8d;stroke-opacity:1"
       id="path794" /><path
       d="m 231.9789,483.9057 3.9906,-12.0269 18.9897,-5.4736 -5.2076,16.7279 -17.7727,0.7726 z"
       style="fill:#fff533;fill-opacity:1;fill-rule:evenodd;stroke:#8d8d8d;stroke-opacity:1"
       id="path796" /><path
       d="m 232.4374,420.8125 3.6719,10.7612 19.1821,6.3768 -5.1407,-16.5422 -17.7133,-0.5958 z"
       style="fill:#fff533;fill-opacity:1;fill-rule:evenodd;stroke:#8d8d8d;stroke-opacity:1"
       id="path798" /><path
       d="m 225.8116,438.958 10.2977,-7.3843 19.1821,6.3768 -14.6472,10.8291 -14.8326,-9.8216 z"
       style="fill:#fff533;fill-opacity:1;fill-rule:evenodd;stroke:#8d8d8d;stroke-opacity:1"
       id="path800" /><path
       d="m 263.6947,386.7972 -3.7816,12.251 11.538,16.6501 5.7968,-16.6208 -13.5532,-12.2803 z"
       style="fill:#fff533;fill-opacity:1;fill-rule:evenodd;stroke:#8d8d8d;stroke-opacity:1"
       id="path802" /><path
       d="m 247.2416,398.9695 12.6715,0.0787 11.538,16.6501 -16.5762,0.9267 -7.6333,-17.6555 z"
       style="fill:#fff533;fill-opacity:1;fill-rule:evenodd;stroke:#8d8d8d;stroke-opacity:1"
       id="path804" /><path
       d="m 308.5492,379.0373 -10.2604,7.6885 0.082,19.8679 13.9248,-9.655 -3.7466,-17.9014 z"
       style="fill:#fff533;fill-opacity:1;fill-rule:evenodd;stroke:#8d8d8d;stroke-opacity:1"
       id="path806" /><path
       d="m 288.0836,379.2141 10.2052,7.5117 0.082,19.8679 -15.0446,-10.2379 4.7572,-17.1417 z"
       style="fill:#fff533;fill-opacity:1;fill-rule:evenodd;stroke:#8d8d8d;stroke-opacity:1"
       id="path808" /><path
       d="m 349.3985,399.1241 -12.8201,0.1893 -11.8285,16.3741 17.1576,0.1214 7.491,-16.6848 z"
       style="fill:#fff533;fill-opacity:1;fill-rule:evenodd;stroke:#8d8d8d;stroke-opacity:1"
       id="path810" /><path
       d="m 332.7375,387.2378 3.8409,12.0756 -11.8285,16.3741 -5.9367,-17.3779 13.9243,-11.0718 z"
       style="fill:#fff533;fill-opacity:1;fill-rule:evenodd;stroke:#8d8d8d;stroke-opacity:1"
       id="path812" /><path
       d="m 370.6397,439.3853 -10.4829,-7.3822 -18.7272,5.9578 14.5078,10.7891 14.7023,-9.3647 z"
       style="fill:#fff533;fill-opacity:1;fill-rule:evenodd;stroke:#8d8d8d;stroke-opacity:1"
       id="path814" /><path
       d="m 364.1472,419.976 -3.9904,12.0271 -18.7272,5.9578 4.9448,-17.212 17.7728,-0.7729 z"
       style="fill:#fff533;fill-opacity:1;fill-rule:evenodd;stroke:#8d8d8d;stroke-opacity:1"
       id="path816" /><path
       d="m 364.1595,484.4428 -4.1418,-12.1341 -18.8225,-5.9259 5.086,16.4922 17.8783,1.5678 z"
       style="fill:#fff533;fill-opacity:1;fill-rule:evenodd;stroke:#8d8d8d;stroke-opacity:1"
       id="path818" /><path
       d="m 370.3154,464.924 -10.2977,7.3847 -18.8225,-5.9259 14.2873,-11.2801 14.8329,9.8213 z"
       style="fill:#fff533;fill-opacity:1;fill-rule:evenodd;stroke:#8d8d8d;stroke-opacity:1"
       id="path820" /><path
       d="m 241.5882,531.5222 21.9643,-67.606 -57.5059,-41.7842 71.0823,-0.001 20.8614,-65.0677 20.2939,65.4143 73.8619,-0.3451 -58.8962,42.368 23.3546,67.0222 -57.5081,-41.7813 -57.5082,41.7813 z m -13.3968,17.0751 69.905,-50.787 69.9049,50.787 -26.699,-82.1779 69.9021,-50.7905 -86.4052,-0.002 -26.7028,-82.1761 -26.7029,82.1761 -86.4052,0.002 69.9022,50.7905 -26.6991,82.1779 z"
       style="fill:#fff533;fill-opacity:1;fill-rule:evenodd;stroke:#8d8d8d;stroke-opacity:1"
       id="path822" /><path
       d="m 206.1396,482.7637 57.5066,-41.7839 -21.9631,-67.6046 57.5073,41.7794 55.1224,-40.3787 -22.0311,64.8492 59.958,43.1352 -72.5506,-0.3417 -20.5,67.9491 -21.9667,-67.6035 -71.0828,-5e-4 z m -20.8746,5.9396 86.4053,10e-4 26.7026,82.1758 26.7024,-82.176 86.4052,-0.003 -69.9018,-50.7885 26.6984,-82.1767 -69.9042,50.7861 -69.9039,-50.7856 26.6982,82.177 -69.9022,50.7898 z"
       style="fill:#fff533;fill-opacity:1;fill-rule:evenodd;stroke:#8d8d8d;stroke-opacity:1"
       id="path824" /></g></svg>